G04 #@! TF.FileFunction,Copper,L2,Bot,Signal*
%FSLAX46Y46*%
G04 Gerber Fmt 4.6, Leading zero omitted, Abs format (unit mm)*
G04 Created by KiCad (PCBNEW 4.0.7) date Tuesday, 24 April 2018 'PMt' 13:45:20*
%MOMM*%
%LPD*%
G01*
G04 APERTURE LIST*
%ADD10C,0.100000*%
%ADD11R,1.500000X1.300000*%
%ADD12R,1.250000X1.500000*%
%ADD13R,1.500000X1.250000*%
%ADD14R,0.910000X1.220000*%
%ADD15R,1.700000X1.700000*%
%ADD16O,1.700000X1.700000*%
%ADD17R,1.300000X1.500000*%
%ADD18R,1.060000X0.650000*%
%ADD19R,3.800000X2.000000*%
%ADD20R,1.500000X2.000000*%
%ADD21C,0.800000*%
%ADD22C,0.700000*%
%ADD23C,0.500000*%
%ADD24C,0.300000*%
%ADD25C,0.254000*%
G04 APERTURE END LIST*
D10*
D11*
X119550000Y-58000000D03*
X122250000Y-58000000D03*
D12*
X140200000Y-63400000D03*
X140200000Y-65900000D03*
X140100000Y-60450000D03*
X140100000Y-57950000D03*
D13*
X145250000Y-66300000D03*
X147750000Y-66300000D03*
X140075000Y-79400000D03*
X142575000Y-79400000D03*
D14*
X142945000Y-77130000D03*
X139675000Y-77130000D03*
D15*
X127000000Y-57920000D03*
D16*
X127000000Y-60460000D03*
X127000000Y-63000000D03*
D15*
X135000000Y-57920000D03*
D16*
X135000000Y-60460000D03*
X135000000Y-63000000D03*
D15*
X131000000Y-57920000D03*
D16*
X131000000Y-60460000D03*
X131000000Y-63000000D03*
D15*
X147900000Y-86600000D03*
D16*
X147900000Y-84060000D03*
D17*
X128200000Y-85975000D03*
X128200000Y-88675000D03*
X131025000Y-88625000D03*
X131025000Y-85925000D03*
X125300000Y-88700000D03*
X125300000Y-86000000D03*
X138000000Y-63400000D03*
X138000000Y-66100000D03*
D11*
X119550000Y-62400000D03*
X122250000Y-62400000D03*
D17*
X122700000Y-88700000D03*
X122700000Y-86000000D03*
D11*
X122250000Y-60200000D03*
X119550000Y-60200000D03*
X142625000Y-85150000D03*
X139925000Y-85150000D03*
D17*
X120250000Y-88700000D03*
X120250000Y-86000000D03*
D18*
X140650000Y-83200000D03*
X140650000Y-82250000D03*
X140650000Y-81300000D03*
X142850000Y-81300000D03*
X142850000Y-83200000D03*
D15*
X148100000Y-71300000D03*
D16*
X148100000Y-73840000D03*
X148100000Y-76380000D03*
X148100000Y-78920000D03*
D15*
X140660000Y-88000000D03*
D16*
X143200000Y-88000000D03*
D19*
X145200000Y-57150000D03*
D20*
X145200000Y-63450000D03*
X142900000Y-63450000D03*
X147500000Y-63450000D03*
D15*
X136800000Y-88000000D03*
D16*
X134260000Y-88000000D03*
D15*
X117000000Y-68580000D03*
D16*
X117000000Y-71120000D03*
X117000000Y-73660000D03*
X117000000Y-76200000D03*
X117000000Y-78740000D03*
X117000000Y-81280000D03*
D21*
X136500000Y-72750000D03*
X137750000Y-72750000D03*
X139000000Y-72750000D03*
X140150000Y-72750000D03*
X143950000Y-79400000D03*
X136600000Y-80350000D03*
X133350000Y-79250000D03*
X133350000Y-78000000D03*
X141750000Y-70250000D03*
X141000000Y-56200000D03*
X133350000Y-76800000D03*
X136600000Y-79150000D03*
X148550000Y-67950000D03*
X149050000Y-63450000D03*
X147550000Y-61400000D03*
X140200000Y-70250000D03*
X118200000Y-85000000D03*
X124000000Y-57050000D03*
X142000000Y-75700000D03*
X142000000Y-72700000D03*
D22*
X127025000Y-88850000D03*
X132500000Y-87450000D03*
D21*
X117400000Y-57800000D03*
D22*
X131300000Y-69800000D03*
X136750000Y-61850000D03*
X140200000Y-61950000D03*
X132250000Y-80500000D03*
D21*
X126650000Y-69600000D03*
X117000000Y-65400000D03*
X117000000Y-62400000D03*
D22*
X144850000Y-71750000D03*
X128300000Y-80950000D03*
X138250000Y-71000000D03*
D23*
X139000000Y-72750000D02*
X137750000Y-72750000D01*
X140750000Y-73450000D02*
X140150000Y-72850000D01*
X140150000Y-72850000D02*
X140150000Y-72750000D01*
X147900000Y-84060000D02*
X147900000Y-86600000D01*
X145250000Y-82200000D02*
X145250000Y-81600000D01*
X145250000Y-86200000D02*
X145250000Y-82200000D01*
X145250000Y-82200000D02*
X145250000Y-81800000D01*
X145250000Y-81800000D02*
X144750000Y-81300000D01*
X145250000Y-81600000D02*
X145250000Y-80800000D01*
X145250000Y-81600000D02*
X145050000Y-81600000D01*
X145050000Y-81600000D02*
X144750000Y-81300000D01*
X145250000Y-80800000D02*
X145250000Y-79800000D01*
X144000000Y-81300000D02*
X144750000Y-81300000D01*
X144750000Y-81300000D02*
X145250000Y-80800000D01*
X145250000Y-87400000D02*
X145250000Y-87000000D01*
X145800000Y-86600000D02*
X145650000Y-86600000D01*
X145250000Y-87000000D02*
X145250000Y-86800000D01*
X145650000Y-86600000D02*
X145250000Y-87000000D01*
X145800000Y-86600000D02*
X145450000Y-86600000D01*
X147900000Y-86600000D02*
X145800000Y-86600000D01*
X145650000Y-86600000D02*
X145250000Y-86200000D01*
X145250000Y-86800000D02*
X145250000Y-86200000D01*
X145450000Y-86600000D02*
X145250000Y-86800000D01*
X143200000Y-88000000D02*
X144650000Y-88000000D01*
X144650000Y-88000000D02*
X145250000Y-87400000D01*
X145250000Y-79800000D02*
X145250000Y-77950000D01*
X145250000Y-80450000D02*
X145250000Y-79800000D01*
X145250000Y-77950000D02*
X144430000Y-77130000D01*
X144430000Y-77130000D02*
X142945000Y-77130000D01*
X144000000Y-81300000D02*
X144350000Y-81300000D01*
X144000000Y-81300000D02*
X144050000Y-81300000D01*
X142850000Y-81300000D02*
X144000000Y-81300000D01*
X147900000Y-86600000D02*
X146550000Y-86600000D01*
X143900000Y-77130000D02*
X142945000Y-77130000D01*
X147900000Y-84060000D02*
X146697919Y-84060000D01*
X146200000Y-83562081D02*
X146200000Y-76900000D01*
X146200000Y-76900000D02*
X145750000Y-76450000D01*
X146697919Y-84060000D02*
X146200000Y-83562081D01*
X145750000Y-76450000D02*
X145750000Y-70800000D01*
X145750000Y-70800000D02*
X145250000Y-70300000D01*
X145250000Y-70300000D02*
X143600000Y-70300000D01*
X142900000Y-69600000D02*
X142900000Y-66900000D01*
X143600000Y-70300000D02*
X142900000Y-69600000D01*
X142900000Y-66900000D02*
X142900000Y-63450000D01*
X142900000Y-63450000D02*
X140250000Y-63450000D01*
X140250000Y-63450000D02*
X140200000Y-63400000D01*
D24*
X142950000Y-63500000D02*
X142900000Y-63450000D01*
D23*
X148100000Y-78920000D02*
X148100000Y-80122081D01*
X148100000Y-80122081D02*
X149400000Y-81422081D01*
X149400000Y-81422081D02*
X149400000Y-88300000D01*
X149400000Y-88300000D02*
X148150000Y-89550000D01*
X148150000Y-89550000D02*
X141210000Y-89550000D01*
X141210000Y-89550000D02*
X140660000Y-89000000D01*
X140660000Y-89000000D02*
X140660000Y-88000000D01*
X141200000Y-78150000D02*
X141200000Y-77000000D01*
X142450000Y-79400000D02*
X141200000Y-78150000D01*
X142575000Y-79400000D02*
X143950000Y-79400000D01*
X136600000Y-81600000D02*
X136600000Y-80350000D01*
X136600000Y-79150000D02*
X136600000Y-80350000D01*
X133350000Y-76800000D02*
X133350000Y-78000000D01*
X140200000Y-70250000D02*
X141750000Y-70250000D01*
X139550000Y-56200000D02*
X139450000Y-56300000D01*
X141000000Y-56200000D02*
X139550000Y-56200000D01*
X137250000Y-82250000D02*
X136600000Y-81600000D01*
X140650000Y-82250000D02*
X137250000Y-82250000D01*
X147750000Y-66300000D02*
X147750000Y-67150000D01*
X147750000Y-67150000D02*
X148550000Y-67950000D01*
X147500000Y-63450000D02*
X149050000Y-63450000D01*
X147500000Y-63450000D02*
X147500000Y-61450000D01*
X147500000Y-61450000D02*
X147550000Y-61400000D01*
X147750000Y-66300000D02*
X147750000Y-63700000D01*
X147750000Y-63700000D02*
X147500000Y-63450000D01*
X140200000Y-65900000D02*
X140200000Y-70250000D01*
X142575000Y-79400000D02*
X142450000Y-79400000D01*
X118200000Y-88400000D02*
X118200000Y-85000000D01*
X118500000Y-88700000D02*
X118200000Y-88400000D01*
X120250000Y-88700000D02*
X118500000Y-88700000D01*
X124435000Y-60460000D02*
X124000000Y-60025000D01*
X124000000Y-60025000D02*
X124000000Y-57050000D01*
X127000000Y-60460000D02*
X124435000Y-60460000D01*
X142000000Y-72700000D02*
X142000000Y-75700000D01*
X147450000Y-68800000D02*
X148100000Y-69450000D01*
X148100000Y-69450000D02*
X148100000Y-71300000D01*
X145650000Y-68800000D02*
X147450000Y-68800000D01*
X145250000Y-68400000D02*
X145650000Y-68800000D01*
X145250000Y-66300000D02*
X145250000Y-68400000D01*
X122700000Y-88700000D02*
X124100000Y-88700000D01*
X124100000Y-88700000D02*
X125300000Y-88700000D01*
X120250000Y-88700000D02*
X122700000Y-88700000D01*
X145250000Y-66300000D02*
X145250000Y-63500000D01*
X145250000Y-63500000D02*
X145200000Y-63450000D01*
X127000000Y-60460000D02*
X142800000Y-60460000D01*
X142800000Y-60460000D02*
X144700000Y-60460000D01*
X140100000Y-60450000D02*
X142790000Y-60450000D01*
X142790000Y-60450000D02*
X142800000Y-60460000D01*
X145200000Y-57150000D02*
X145200000Y-60000000D01*
X145200000Y-60000000D02*
X145200000Y-60500000D01*
X144700000Y-60460000D02*
X144740000Y-60460000D01*
X144740000Y-60460000D02*
X145200000Y-60000000D01*
X145200000Y-61500000D02*
X145200000Y-63450000D01*
X145200000Y-60500000D02*
X145200000Y-61500000D01*
X144700000Y-60460000D02*
X145160000Y-60460000D01*
X145200000Y-61500000D02*
X145200000Y-60960000D01*
X145200000Y-60960000D02*
X144700000Y-60460000D01*
X145160000Y-60460000D02*
X145200000Y-60500000D01*
X131000000Y-60460000D02*
X127000000Y-60460000D01*
X135000000Y-60460000D02*
X131000000Y-60460000D01*
X134750000Y-78100000D02*
X135720000Y-77130000D01*
X135720000Y-77130000D02*
X139675000Y-77130000D01*
X134750000Y-84300000D02*
X134750000Y-78100000D01*
X136800000Y-86350000D02*
X134750000Y-84300000D01*
X136800000Y-88000000D02*
X136800000Y-86350000D01*
X140075000Y-78695000D02*
X139675000Y-78295000D01*
X139675000Y-78295000D02*
X139675000Y-77130000D01*
X140075000Y-79400000D02*
X140075000Y-78695000D01*
X140650000Y-81300000D02*
X140650000Y-79975000D01*
X140650000Y-79975000D02*
X140075000Y-79400000D01*
D24*
X127025000Y-88850000D02*
X128025000Y-88850000D01*
X128025000Y-88850000D02*
X128200000Y-88675000D01*
X132500000Y-87450000D02*
X132500000Y-86450000D01*
X132500000Y-86450000D02*
X131975000Y-85925000D01*
X131975000Y-85925000D02*
X131025000Y-85925000D01*
X131250000Y-86150000D02*
X131025000Y-85925000D01*
D23*
X117400000Y-57800000D02*
X119350000Y-57800000D01*
X119350000Y-57800000D02*
X119550000Y-58000000D01*
D24*
X131300000Y-69800000D02*
X131649999Y-69450001D01*
X131649999Y-69450001D02*
X136099999Y-69450001D01*
X136099999Y-69450001D02*
X136750000Y-68800000D01*
X136750000Y-68800000D02*
X136750000Y-61850000D01*
X140200000Y-61950000D02*
X138450000Y-61950000D01*
X138000000Y-63400000D02*
X138000000Y-62350000D01*
X138000000Y-62350000D02*
X138400000Y-61950000D01*
X138400000Y-61950000D02*
X138450000Y-61950000D01*
X138525000Y-89050000D02*
X138525000Y-83775000D01*
X138525000Y-83775000D02*
X139100000Y-83200000D01*
X139100000Y-83200000D02*
X140650000Y-83200000D01*
X138125000Y-89450000D02*
X138525000Y-89050000D01*
X132800000Y-89450000D02*
X138125000Y-89450000D01*
X131025000Y-88625000D02*
X131975000Y-88625000D01*
X131975000Y-88625000D02*
X132800000Y-89450000D01*
X131025000Y-88625000D02*
X130000000Y-88625000D01*
X130000000Y-88625000D02*
X129625000Y-88250000D01*
X129625000Y-88250000D02*
X129625000Y-86450000D01*
X129625000Y-86450000D02*
X129150000Y-85975000D01*
X129150000Y-85975000D02*
X128200000Y-85975000D01*
X131850000Y-84300000D02*
X132250000Y-83900000D01*
X132250000Y-83900000D02*
X132250000Y-80500000D01*
X125950000Y-84300000D02*
X131850000Y-84300000D01*
X125300000Y-86000000D02*
X125300000Y-84950000D01*
X125300000Y-84950000D02*
X125950000Y-84300000D01*
D23*
X126650000Y-67950000D02*
X126650000Y-67000000D01*
X126650000Y-69600000D02*
X126650000Y-67000000D01*
X126650000Y-67950000D02*
X126650000Y-66250000D01*
X126650000Y-67000000D02*
X126650000Y-66600000D01*
X125800000Y-65400000D02*
X117000000Y-65400000D01*
X126650000Y-66250000D02*
X125800000Y-65400000D01*
X117000000Y-65400000D02*
X119600000Y-65400000D01*
X119550000Y-62400000D02*
X117000000Y-62400000D01*
X119550000Y-62400000D02*
X119550000Y-60200000D01*
D24*
X128300000Y-81850000D02*
X128300000Y-80950000D01*
X127750000Y-83700000D02*
X128300000Y-83150000D01*
X128300000Y-83150000D02*
X128300000Y-81850000D01*
X123450000Y-83700000D02*
X127750000Y-83700000D01*
X122700000Y-84450000D02*
X123450000Y-83700000D01*
X122700000Y-86000000D02*
X122700000Y-84450000D01*
X138650000Y-71750000D02*
X139500000Y-71750000D01*
X139500000Y-71750000D02*
X144850000Y-71750000D01*
X128300000Y-72450000D02*
X129000000Y-71750000D01*
X129000000Y-71750000D02*
X139500000Y-71750000D01*
X128300000Y-78300000D02*
X128300000Y-72450000D01*
X128300000Y-80950000D02*
X128300000Y-78300000D01*
X128300000Y-80950000D02*
X128300000Y-79750000D01*
X122250000Y-58000000D02*
X122250000Y-60200000D01*
X142625000Y-85150000D02*
X142625000Y-83425000D01*
X142625000Y-83425000D02*
X142850000Y-83200000D01*
X120250000Y-86000000D02*
X120250000Y-84000000D01*
X126450000Y-83050000D02*
X127000000Y-82500000D01*
X127000000Y-82500000D02*
X127000000Y-71850000D01*
X120250000Y-84000000D02*
X121200000Y-83050000D01*
X121200000Y-83050000D02*
X126450000Y-83050000D01*
X127000000Y-71850000D02*
X127850000Y-71000000D01*
X127850000Y-71000000D02*
X138250000Y-71000000D01*
D25*
G36*
X142848559Y-55685910D02*
X142703569Y-55898110D01*
X142652560Y-56150000D01*
X142652560Y-58150000D01*
X142696838Y-58385317D01*
X142835910Y-58601441D01*
X143048110Y-58746431D01*
X143300000Y-58797440D01*
X144315000Y-58797440D01*
X144315000Y-59575000D01*
X142840277Y-59575000D01*
X142790000Y-59564999D01*
X142789995Y-59565000D01*
X141347038Y-59565000D01*
X141328162Y-59464683D01*
X141189090Y-59248559D01*
X141120994Y-59202031D01*
X141263327Y-59059698D01*
X141360000Y-58826309D01*
X141360000Y-58235750D01*
X141201250Y-58077000D01*
X140227000Y-58077000D01*
X140227000Y-58097000D01*
X139973000Y-58097000D01*
X139973000Y-58077000D01*
X138998750Y-58077000D01*
X138840000Y-58235750D01*
X138840000Y-58826309D01*
X138936673Y-59059698D01*
X139077910Y-59200936D01*
X139023559Y-59235910D01*
X138878569Y-59448110D01*
X138852873Y-59575000D01*
X136189432Y-59575000D01*
X136079147Y-59409946D01*
X136037548Y-59382150D01*
X136085317Y-59373162D01*
X136301441Y-59234090D01*
X136446431Y-59021890D01*
X136497440Y-58770000D01*
X136497440Y-57073691D01*
X138840000Y-57073691D01*
X138840000Y-57664250D01*
X138998750Y-57823000D01*
X139973000Y-57823000D01*
X139973000Y-56723750D01*
X140227000Y-56723750D01*
X140227000Y-57823000D01*
X141201250Y-57823000D01*
X141360000Y-57664250D01*
X141360000Y-57073691D01*
X141263327Y-56840302D01*
X141084699Y-56661673D01*
X140851310Y-56565000D01*
X140385750Y-56565000D01*
X140227000Y-56723750D01*
X139973000Y-56723750D01*
X139814250Y-56565000D01*
X139348690Y-56565000D01*
X139115301Y-56661673D01*
X138936673Y-56840302D01*
X138840000Y-57073691D01*
X136497440Y-57073691D01*
X136497440Y-57070000D01*
X136453162Y-56834683D01*
X136314090Y-56618559D01*
X136101890Y-56473569D01*
X135850000Y-56422560D01*
X134150000Y-56422560D01*
X133914683Y-56466838D01*
X133698559Y-56605910D01*
X133553569Y-56818110D01*
X133502560Y-57070000D01*
X133502560Y-58770000D01*
X133546838Y-59005317D01*
X133685910Y-59221441D01*
X133898110Y-59366431D01*
X133965541Y-59380086D01*
X133920853Y-59409946D01*
X133810568Y-59575000D01*
X132189432Y-59575000D01*
X132079147Y-59409946D01*
X132037548Y-59382150D01*
X132085317Y-59373162D01*
X132301441Y-59234090D01*
X132446431Y-59021890D01*
X132497440Y-58770000D01*
X132497440Y-57070000D01*
X132453162Y-56834683D01*
X132314090Y-56618559D01*
X132101890Y-56473569D01*
X131850000Y-56422560D01*
X130150000Y-56422560D01*
X129914683Y-56466838D01*
X129698559Y-56605910D01*
X129553569Y-56818110D01*
X129502560Y-57070000D01*
X129502560Y-58770000D01*
X129546838Y-59005317D01*
X129685910Y-59221441D01*
X129898110Y-59366431D01*
X129965541Y-59380086D01*
X129920853Y-59409946D01*
X129810568Y-59575000D01*
X128189432Y-59575000D01*
X128079147Y-59409946D01*
X128037548Y-59382150D01*
X128085317Y-59373162D01*
X128301441Y-59234090D01*
X128446431Y-59021890D01*
X128497440Y-58770000D01*
X128497440Y-57070000D01*
X128453162Y-56834683D01*
X128314090Y-56618559D01*
X128101890Y-56473569D01*
X127850000Y-56422560D01*
X126150000Y-56422560D01*
X125914683Y-56466838D01*
X125698559Y-56605910D01*
X125553569Y-56818110D01*
X125502560Y-57070000D01*
X125502560Y-58770000D01*
X125546838Y-59005317D01*
X125685910Y-59221441D01*
X125898110Y-59366431D01*
X125965541Y-59380086D01*
X125920853Y-59409946D01*
X125810568Y-59575000D01*
X124885000Y-59575000D01*
X124885000Y-57617585D01*
X125034820Y-57256777D01*
X125035179Y-56845029D01*
X124877942Y-56464485D01*
X124587046Y-56173081D01*
X124206777Y-56015180D01*
X123795029Y-56014821D01*
X123414485Y-56172058D01*
X123123081Y-56462954D01*
X123021759Y-56706966D01*
X123000000Y-56702560D01*
X121500000Y-56702560D01*
X121264683Y-56746838D01*
X121048559Y-56885910D01*
X120903569Y-57098110D01*
X120900919Y-57111197D01*
X120764090Y-56898559D01*
X120551890Y-56753569D01*
X120300000Y-56702560D01*
X118800000Y-56702560D01*
X118564683Y-56746838D01*
X118348559Y-56885910D01*
X118328683Y-56915000D01*
X117967585Y-56915000D01*
X117606777Y-56765180D01*
X117195029Y-56764821D01*
X116814485Y-56922058D01*
X116523081Y-57212954D01*
X116365180Y-57593223D01*
X116364821Y-58004971D01*
X116522058Y-58385515D01*
X116812954Y-58676919D01*
X117193223Y-58834820D01*
X117604971Y-58835179D01*
X117968433Y-58685000D01*
X118159146Y-58685000D01*
X118196838Y-58885317D01*
X118335910Y-59101441D01*
X118337299Y-59102390D01*
X118203569Y-59298110D01*
X118152560Y-59550000D01*
X118152560Y-60850000D01*
X118196838Y-61085317D01*
X118335910Y-61301441D01*
X118337299Y-61302390D01*
X118203569Y-61498110D01*
X118200149Y-61515000D01*
X117567585Y-61515000D01*
X117206777Y-61365180D01*
X116795029Y-61364821D01*
X116414485Y-61522058D01*
X116123081Y-61812954D01*
X115965180Y-62193223D01*
X115964821Y-62604971D01*
X116122058Y-62985515D01*
X116412954Y-63276919D01*
X116793223Y-63434820D01*
X117204971Y-63435179D01*
X117568433Y-63285000D01*
X118196778Y-63285000D01*
X118196838Y-63285317D01*
X118335910Y-63501441D01*
X118548110Y-63646431D01*
X118800000Y-63697440D01*
X120300000Y-63697440D01*
X120535317Y-63653162D01*
X120751441Y-63514090D01*
X120896431Y-63301890D01*
X120903191Y-63268510D01*
X120961673Y-63409699D01*
X121140302Y-63588327D01*
X121373691Y-63685000D01*
X121964250Y-63685000D01*
X122123000Y-63526250D01*
X122123000Y-62527000D01*
X122377000Y-62527000D01*
X122377000Y-63526250D01*
X122535750Y-63685000D01*
X123126309Y-63685000D01*
X123359698Y-63588327D01*
X123538327Y-63409699D01*
X123560201Y-63356890D01*
X125558524Y-63356890D01*
X125728355Y-63766924D01*
X126118642Y-64195183D01*
X126643108Y-64441486D01*
X126873000Y-64320819D01*
X126873000Y-63127000D01*
X127127000Y-63127000D01*
X127127000Y-64320819D01*
X127356892Y-64441486D01*
X127881358Y-64195183D01*
X128271645Y-63766924D01*
X128441476Y-63356890D01*
X129558524Y-63356890D01*
X129728355Y-63766924D01*
X130118642Y-64195183D01*
X130643108Y-64441486D01*
X130873000Y-64320819D01*
X130873000Y-63127000D01*
X131127000Y-63127000D01*
X131127000Y-64320819D01*
X131356892Y-64441486D01*
X131881358Y-64195183D01*
X132271645Y-63766924D01*
X132441476Y-63356890D01*
X133558524Y-63356890D01*
X133728355Y-63766924D01*
X134118642Y-64195183D01*
X134643108Y-64441486D01*
X134873000Y-64320819D01*
X134873000Y-63127000D01*
X133679845Y-63127000D01*
X133558524Y-63356890D01*
X132441476Y-63356890D01*
X132320155Y-63127000D01*
X131127000Y-63127000D01*
X130873000Y-63127000D01*
X129679845Y-63127000D01*
X129558524Y-63356890D01*
X128441476Y-63356890D01*
X128320155Y-63127000D01*
X127127000Y-63127000D01*
X126873000Y-63127000D01*
X125679845Y-63127000D01*
X125558524Y-63356890D01*
X123560201Y-63356890D01*
X123635000Y-63176310D01*
X123635000Y-62685750D01*
X123476250Y-62527000D01*
X122377000Y-62527000D01*
X122123000Y-62527000D01*
X122103000Y-62527000D01*
X122103000Y-62273000D01*
X122123000Y-62273000D01*
X122123000Y-62253000D01*
X122377000Y-62253000D01*
X122377000Y-62273000D01*
X123476250Y-62273000D01*
X123635000Y-62114250D01*
X123635000Y-61623690D01*
X123538327Y-61390301D01*
X123455774Y-61307748D01*
X123596431Y-61101890D01*
X123634975Y-60911554D01*
X123809208Y-61085787D01*
X123809210Y-61085790D01*
X124096325Y-61277633D01*
X124137936Y-61285910D01*
X124435000Y-61345001D01*
X124435005Y-61345000D01*
X125810568Y-61345000D01*
X125920853Y-61510054D01*
X126261553Y-61737702D01*
X126118642Y-61804817D01*
X125728355Y-62233076D01*
X125558524Y-62643110D01*
X125679845Y-62873000D01*
X126873000Y-62873000D01*
X126873000Y-62853000D01*
X127127000Y-62853000D01*
X127127000Y-62873000D01*
X128320155Y-62873000D01*
X128441476Y-62643110D01*
X128271645Y-62233076D01*
X127881358Y-61804817D01*
X127738447Y-61737702D01*
X128079147Y-61510054D01*
X128189432Y-61345000D01*
X129810568Y-61345000D01*
X129920853Y-61510054D01*
X130261553Y-61737702D01*
X130118642Y-61804817D01*
X129728355Y-62233076D01*
X129558524Y-62643110D01*
X129679845Y-62873000D01*
X130873000Y-62873000D01*
X130873000Y-62853000D01*
X131127000Y-62853000D01*
X131127000Y-62873000D01*
X132320155Y-62873000D01*
X132441476Y-62643110D01*
X132271645Y-62233076D01*
X131881358Y-61804817D01*
X131738447Y-61737702D01*
X132079147Y-61510054D01*
X132189432Y-61345000D01*
X133810568Y-61345000D01*
X133920853Y-61510054D01*
X134261553Y-61737702D01*
X134118642Y-61804817D01*
X133728355Y-62233076D01*
X133558524Y-62643110D01*
X133679845Y-62873000D01*
X134873000Y-62873000D01*
X134873000Y-62853000D01*
X135127000Y-62853000D01*
X135127000Y-62873000D01*
X135147000Y-62873000D01*
X135147000Y-63127000D01*
X135127000Y-63127000D01*
X135127000Y-64320819D01*
X135356892Y-64441486D01*
X135881358Y-64195183D01*
X135965000Y-64103403D01*
X135965000Y-68474842D01*
X135774841Y-68665001D01*
X131649999Y-68665001D01*
X131349592Y-68724756D01*
X131214643Y-68814926D01*
X131104931Y-68814830D01*
X130742771Y-68964471D01*
X130465445Y-69241314D01*
X130315172Y-69603212D01*
X130314830Y-69995069D01*
X130405703Y-70215000D01*
X127850005Y-70215000D01*
X127850000Y-70214999D01*
X127585398Y-70267633D01*
X127549594Y-70274755D01*
X127294921Y-70444921D01*
X127294919Y-70444924D01*
X126444921Y-71294921D01*
X126274755Y-71549593D01*
X126234891Y-71750000D01*
X126215000Y-71850000D01*
X126215000Y-82174843D01*
X126124842Y-82265000D01*
X125727000Y-82265000D01*
X125727000Y-70076466D01*
X125772058Y-70185515D01*
X126062954Y-70476919D01*
X126443223Y-70634820D01*
X126854971Y-70635179D01*
X127235515Y-70477942D01*
X127526919Y-70187046D01*
X127684820Y-69806777D01*
X127685179Y-69395029D01*
X127535000Y-69031567D01*
X127535000Y-66250005D01*
X127535001Y-66250000D01*
X127467634Y-65911326D01*
X127402770Y-65814250D01*
X127275790Y-65624210D01*
X127275787Y-65624208D01*
X126425790Y-64774210D01*
X126394289Y-64753162D01*
X126138675Y-64582367D01*
X126082484Y-64571190D01*
X125800000Y-64514999D01*
X125799995Y-64515000D01*
X117567585Y-64515000D01*
X117206777Y-64365180D01*
X116795029Y-64364821D01*
X116414485Y-64522058D01*
X116123081Y-64812954D01*
X115965180Y-65193223D01*
X115964821Y-65604971D01*
X116122058Y-65985515D01*
X116412954Y-66276919D01*
X116793223Y-66434820D01*
X117204971Y-66435179D01*
X117568433Y-66285000D01*
X125433420Y-66285000D01*
X125765000Y-66616579D01*
X125765000Y-69032415D01*
X125727000Y-69123930D01*
X125727000Y-67000000D01*
X125718315Y-66953841D01*
X125691035Y-66911447D01*
X125649410Y-66883006D01*
X125600000Y-66873000D01*
X119800000Y-66873000D01*
X119753841Y-66881685D01*
X119711447Y-66908965D01*
X119683006Y-66950590D01*
X119673000Y-67000000D01*
X119673000Y-83000000D01*
X119681685Y-83046159D01*
X119708965Y-83088553D01*
X119750590Y-83116994D01*
X119800000Y-83127000D01*
X120012842Y-83127000D01*
X119694921Y-83444921D01*
X119524755Y-83699593D01*
X119485902Y-83894921D01*
X119465000Y-84000000D01*
X119465000Y-84627962D01*
X119364683Y-84646838D01*
X119214009Y-84743794D01*
X119077942Y-84414485D01*
X118787046Y-84123081D01*
X118406777Y-83965180D01*
X117995029Y-83964821D01*
X117614485Y-84122058D01*
X117323081Y-84412954D01*
X117165180Y-84793223D01*
X117164821Y-85204971D01*
X117315000Y-85568433D01*
X117315000Y-88399995D01*
X117314999Y-88400000D01*
X117365367Y-88653212D01*
X117382367Y-88738675D01*
X117486767Y-88894921D01*
X117574210Y-89025790D01*
X117863421Y-89315000D01*
X116067466Y-89315000D01*
X115884590Y-89278624D01*
X115786751Y-89213250D01*
X115721376Y-89115409D01*
X115685000Y-88932534D01*
X115685000Y-81977074D01*
X115920853Y-82330054D01*
X116402622Y-82651961D01*
X116970907Y-82765000D01*
X117029093Y-82765000D01*
X117597378Y-82651961D01*
X118079147Y-82330054D01*
X118401054Y-81848285D01*
X118514093Y-81280000D01*
X118401054Y-80711715D01*
X118079147Y-80229946D01*
X117749974Y-80010000D01*
X118079147Y-79790054D01*
X118401054Y-79308285D01*
X118514093Y-78740000D01*
X118401054Y-78171715D01*
X118079147Y-77689946D01*
X117749974Y-77470000D01*
X118079147Y-77250054D01*
X118401054Y-76768285D01*
X118514093Y-76200000D01*
X118401054Y-75631715D01*
X118079147Y-75149946D01*
X117749974Y-74930000D01*
X118079147Y-74710054D01*
X118401054Y-74228285D01*
X118514093Y-73660000D01*
X118401054Y-73091715D01*
X118079147Y-72609946D01*
X117749974Y-72390000D01*
X118079147Y-72170054D01*
X118401054Y-71688285D01*
X118514093Y-71120000D01*
X118401054Y-70551715D01*
X118079147Y-70069946D01*
X118035223Y-70040597D01*
X118209698Y-69968327D01*
X118388327Y-69789699D01*
X118485000Y-69556310D01*
X118485000Y-68865750D01*
X118326250Y-68707000D01*
X117127000Y-68707000D01*
X117127000Y-68727000D01*
X116873000Y-68727000D01*
X116873000Y-68707000D01*
X116853000Y-68707000D01*
X116853000Y-68453000D01*
X116873000Y-68453000D01*
X116873000Y-67253750D01*
X117127000Y-67253750D01*
X117127000Y-68453000D01*
X118326250Y-68453000D01*
X118485000Y-68294250D01*
X118485000Y-67603690D01*
X118388327Y-67370301D01*
X118209698Y-67191673D01*
X117976309Y-67095000D01*
X117285750Y-67095000D01*
X117127000Y-67253750D01*
X116873000Y-67253750D01*
X116714250Y-67095000D01*
X116023691Y-67095000D01*
X115790302Y-67191673D01*
X115685000Y-67296974D01*
X115685000Y-56067466D01*
X115721376Y-55884591D01*
X115786751Y-55786750D01*
X115884590Y-55721376D01*
X116067466Y-55685000D01*
X142849973Y-55685000D01*
X142848559Y-55685910D01*
X142848559Y-55685910D01*
G37*
X142848559Y-55685910D02*
X142703569Y-55898110D01*
X142652560Y-56150000D01*
X142652560Y-58150000D01*
X142696838Y-58385317D01*
X142835910Y-58601441D01*
X143048110Y-58746431D01*
X143300000Y-58797440D01*
X144315000Y-58797440D01*
X144315000Y-59575000D01*
X142840277Y-59575000D01*
X142790000Y-59564999D01*
X142789995Y-59565000D01*
X141347038Y-59565000D01*
X141328162Y-59464683D01*
X141189090Y-59248559D01*
X141120994Y-59202031D01*
X141263327Y-59059698D01*
X141360000Y-58826309D01*
X141360000Y-58235750D01*
X141201250Y-58077000D01*
X140227000Y-58077000D01*
X140227000Y-58097000D01*
X139973000Y-58097000D01*
X139973000Y-58077000D01*
X138998750Y-58077000D01*
X138840000Y-58235750D01*
X138840000Y-58826309D01*
X138936673Y-59059698D01*
X139077910Y-59200936D01*
X139023559Y-59235910D01*
X138878569Y-59448110D01*
X138852873Y-59575000D01*
X136189432Y-59575000D01*
X136079147Y-59409946D01*
X136037548Y-59382150D01*
X136085317Y-59373162D01*
X136301441Y-59234090D01*
X136446431Y-59021890D01*
X136497440Y-58770000D01*
X136497440Y-57073691D01*
X138840000Y-57073691D01*
X138840000Y-57664250D01*
X138998750Y-57823000D01*
X139973000Y-57823000D01*
X139973000Y-56723750D01*
X140227000Y-56723750D01*
X140227000Y-57823000D01*
X141201250Y-57823000D01*
X141360000Y-57664250D01*
X141360000Y-57073691D01*
X141263327Y-56840302D01*
X141084699Y-56661673D01*
X140851310Y-56565000D01*
X140385750Y-56565000D01*
X140227000Y-56723750D01*
X139973000Y-56723750D01*
X139814250Y-56565000D01*
X139348690Y-56565000D01*
X139115301Y-56661673D01*
X138936673Y-56840302D01*
X138840000Y-57073691D01*
X136497440Y-57073691D01*
X136497440Y-57070000D01*
X136453162Y-56834683D01*
X136314090Y-56618559D01*
X136101890Y-56473569D01*
X135850000Y-56422560D01*
X134150000Y-56422560D01*
X133914683Y-56466838D01*
X133698559Y-56605910D01*
X133553569Y-56818110D01*
X133502560Y-57070000D01*
X133502560Y-58770000D01*
X133546838Y-59005317D01*
X133685910Y-59221441D01*
X133898110Y-59366431D01*
X133965541Y-59380086D01*
X133920853Y-59409946D01*
X133810568Y-59575000D01*
X132189432Y-59575000D01*
X132079147Y-59409946D01*
X132037548Y-59382150D01*
X132085317Y-59373162D01*
X132301441Y-59234090D01*
X132446431Y-59021890D01*
X132497440Y-58770000D01*
X132497440Y-57070000D01*
X132453162Y-56834683D01*
X132314090Y-56618559D01*
X132101890Y-56473569D01*
X131850000Y-56422560D01*
X130150000Y-56422560D01*
X129914683Y-56466838D01*
X129698559Y-56605910D01*
X129553569Y-56818110D01*
X129502560Y-57070000D01*
X129502560Y-58770000D01*
X129546838Y-59005317D01*
X129685910Y-59221441D01*
X129898110Y-59366431D01*
X129965541Y-59380086D01*
X129920853Y-59409946D01*
X129810568Y-59575000D01*
X128189432Y-59575000D01*
X128079147Y-59409946D01*
X128037548Y-59382150D01*
X128085317Y-59373162D01*
X128301441Y-59234090D01*
X128446431Y-59021890D01*
X128497440Y-58770000D01*
X128497440Y-57070000D01*
X128453162Y-56834683D01*
X128314090Y-56618559D01*
X128101890Y-56473569D01*
X127850000Y-56422560D01*
X126150000Y-56422560D01*
X125914683Y-56466838D01*
X125698559Y-56605910D01*
X125553569Y-56818110D01*
X125502560Y-57070000D01*
X125502560Y-58770000D01*
X125546838Y-59005317D01*
X125685910Y-59221441D01*
X125898110Y-59366431D01*
X125965541Y-59380086D01*
X125920853Y-59409946D01*
X125810568Y-59575000D01*
X124885000Y-59575000D01*
X124885000Y-57617585D01*
X125034820Y-57256777D01*
X125035179Y-56845029D01*
X124877942Y-56464485D01*
X124587046Y-56173081D01*
X124206777Y-56015180D01*
X123795029Y-56014821D01*
X123414485Y-56172058D01*
X123123081Y-56462954D01*
X123021759Y-56706966D01*
X123000000Y-56702560D01*
X121500000Y-56702560D01*
X121264683Y-56746838D01*
X121048559Y-56885910D01*
X120903569Y-57098110D01*
X120900919Y-57111197D01*
X120764090Y-56898559D01*
X120551890Y-56753569D01*
X120300000Y-56702560D01*
X118800000Y-56702560D01*
X118564683Y-56746838D01*
X118348559Y-56885910D01*
X118328683Y-56915000D01*
X117967585Y-56915000D01*
X117606777Y-56765180D01*
X117195029Y-56764821D01*
X116814485Y-56922058D01*
X116523081Y-57212954D01*
X116365180Y-57593223D01*
X116364821Y-58004971D01*
X116522058Y-58385515D01*
X116812954Y-58676919D01*
X117193223Y-58834820D01*
X117604971Y-58835179D01*
X117968433Y-58685000D01*
X118159146Y-58685000D01*
X118196838Y-58885317D01*
X118335910Y-59101441D01*
X118337299Y-59102390D01*
X118203569Y-59298110D01*
X118152560Y-59550000D01*
X118152560Y-60850000D01*
X118196838Y-61085317D01*
X118335910Y-61301441D01*
X118337299Y-61302390D01*
X118203569Y-61498110D01*
X118200149Y-61515000D01*
X117567585Y-61515000D01*
X117206777Y-61365180D01*
X116795029Y-61364821D01*
X116414485Y-61522058D01*
X116123081Y-61812954D01*
X115965180Y-62193223D01*
X115964821Y-62604971D01*
X116122058Y-62985515D01*
X116412954Y-63276919D01*
X116793223Y-63434820D01*
X117204971Y-63435179D01*
X117568433Y-63285000D01*
X118196778Y-63285000D01*
X118196838Y-63285317D01*
X118335910Y-63501441D01*
X118548110Y-63646431D01*
X118800000Y-63697440D01*
X120300000Y-63697440D01*
X120535317Y-63653162D01*
X120751441Y-63514090D01*
X120896431Y-63301890D01*
X120903191Y-63268510D01*
X120961673Y-63409699D01*
X121140302Y-63588327D01*
X121373691Y-63685000D01*
X121964250Y-63685000D01*
X122123000Y-63526250D01*
X122123000Y-62527000D01*
X122377000Y-62527000D01*
X122377000Y-63526250D01*
X122535750Y-63685000D01*
X123126309Y-63685000D01*
X123359698Y-63588327D01*
X123538327Y-63409699D01*
X123560201Y-63356890D01*
X125558524Y-63356890D01*
X125728355Y-63766924D01*
X126118642Y-64195183D01*
X126643108Y-64441486D01*
X126873000Y-64320819D01*
X126873000Y-63127000D01*
X127127000Y-63127000D01*
X127127000Y-64320819D01*
X127356892Y-64441486D01*
X127881358Y-64195183D01*
X128271645Y-63766924D01*
X128441476Y-63356890D01*
X129558524Y-63356890D01*
X129728355Y-63766924D01*
X130118642Y-64195183D01*
X130643108Y-64441486D01*
X130873000Y-64320819D01*
X130873000Y-63127000D01*
X131127000Y-63127000D01*
X131127000Y-64320819D01*
X131356892Y-64441486D01*
X131881358Y-64195183D01*
X132271645Y-63766924D01*
X132441476Y-63356890D01*
X133558524Y-63356890D01*
X133728355Y-63766924D01*
X134118642Y-64195183D01*
X134643108Y-64441486D01*
X134873000Y-64320819D01*
X134873000Y-63127000D01*
X133679845Y-63127000D01*
X133558524Y-63356890D01*
X132441476Y-63356890D01*
X132320155Y-63127000D01*
X131127000Y-63127000D01*
X130873000Y-63127000D01*
X129679845Y-63127000D01*
X129558524Y-63356890D01*
X128441476Y-63356890D01*
X128320155Y-63127000D01*
X127127000Y-63127000D01*
X126873000Y-63127000D01*
X125679845Y-63127000D01*
X125558524Y-63356890D01*
X123560201Y-63356890D01*
X123635000Y-63176310D01*
X123635000Y-62685750D01*
X123476250Y-62527000D01*
X122377000Y-62527000D01*
X122123000Y-62527000D01*
X122103000Y-62527000D01*
X122103000Y-62273000D01*
X122123000Y-62273000D01*
X122123000Y-62253000D01*
X122377000Y-62253000D01*
X122377000Y-62273000D01*
X123476250Y-62273000D01*
X123635000Y-62114250D01*
X123635000Y-61623690D01*
X123538327Y-61390301D01*
X123455774Y-61307748D01*
X123596431Y-61101890D01*
X123634975Y-60911554D01*
X123809208Y-61085787D01*
X123809210Y-61085790D01*
X124096325Y-61277633D01*
X124137936Y-61285910D01*
X124435000Y-61345001D01*
X124435005Y-61345000D01*
X125810568Y-61345000D01*
X125920853Y-61510054D01*
X126261553Y-61737702D01*
X126118642Y-61804817D01*
X125728355Y-62233076D01*
X125558524Y-62643110D01*
X125679845Y-62873000D01*
X126873000Y-62873000D01*
X126873000Y-62853000D01*
X127127000Y-62853000D01*
X127127000Y-62873000D01*
X128320155Y-62873000D01*
X128441476Y-62643110D01*
X128271645Y-62233076D01*
X127881358Y-61804817D01*
X127738447Y-61737702D01*
X128079147Y-61510054D01*
X128189432Y-61345000D01*
X129810568Y-61345000D01*
X129920853Y-61510054D01*
X130261553Y-61737702D01*
X130118642Y-61804817D01*
X129728355Y-62233076D01*
X129558524Y-62643110D01*
X129679845Y-62873000D01*
X130873000Y-62873000D01*
X130873000Y-62853000D01*
X131127000Y-62853000D01*
X131127000Y-62873000D01*
X132320155Y-62873000D01*
X132441476Y-62643110D01*
X132271645Y-62233076D01*
X131881358Y-61804817D01*
X131738447Y-61737702D01*
X132079147Y-61510054D01*
X132189432Y-61345000D01*
X133810568Y-61345000D01*
X133920853Y-61510054D01*
X134261553Y-61737702D01*
X134118642Y-61804817D01*
X133728355Y-62233076D01*
X133558524Y-62643110D01*
X133679845Y-62873000D01*
X134873000Y-62873000D01*
X134873000Y-62853000D01*
X135127000Y-62853000D01*
X135127000Y-62873000D01*
X135147000Y-62873000D01*
X135147000Y-63127000D01*
X135127000Y-63127000D01*
X135127000Y-64320819D01*
X135356892Y-64441486D01*
X135881358Y-64195183D01*
X135965000Y-64103403D01*
X135965000Y-68474842D01*
X135774841Y-68665001D01*
X131649999Y-68665001D01*
X131349592Y-68724756D01*
X131214643Y-68814926D01*
X131104931Y-68814830D01*
X130742771Y-68964471D01*
X130465445Y-69241314D01*
X130315172Y-69603212D01*
X130314830Y-69995069D01*
X130405703Y-70215000D01*
X127850005Y-70215000D01*
X127850000Y-70214999D01*
X127585398Y-70267633D01*
X127549594Y-70274755D01*
X127294921Y-70444921D01*
X127294919Y-70444924D01*
X126444921Y-71294921D01*
X126274755Y-71549593D01*
X126234891Y-71750000D01*
X126215000Y-71850000D01*
X126215000Y-82174843D01*
X126124842Y-82265000D01*
X125727000Y-82265000D01*
X125727000Y-70076466D01*
X125772058Y-70185515D01*
X126062954Y-70476919D01*
X126443223Y-70634820D01*
X126854971Y-70635179D01*
X127235515Y-70477942D01*
X127526919Y-70187046D01*
X127684820Y-69806777D01*
X127685179Y-69395029D01*
X127535000Y-69031567D01*
X127535000Y-66250005D01*
X127535001Y-66250000D01*
X127467634Y-65911326D01*
X127402770Y-65814250D01*
X127275790Y-65624210D01*
X127275787Y-65624208D01*
X126425790Y-64774210D01*
X126394289Y-64753162D01*
X126138675Y-64582367D01*
X126082484Y-64571190D01*
X125800000Y-64514999D01*
X125799995Y-64515000D01*
X117567585Y-64515000D01*
X117206777Y-64365180D01*
X116795029Y-64364821D01*
X116414485Y-64522058D01*
X116123081Y-64812954D01*
X115965180Y-65193223D01*
X115964821Y-65604971D01*
X116122058Y-65985515D01*
X116412954Y-66276919D01*
X116793223Y-66434820D01*
X117204971Y-66435179D01*
X117568433Y-66285000D01*
X125433420Y-66285000D01*
X125765000Y-66616579D01*
X125765000Y-69032415D01*
X125727000Y-69123930D01*
X125727000Y-67000000D01*
X125718315Y-66953841D01*
X125691035Y-66911447D01*
X125649410Y-66883006D01*
X125600000Y-66873000D01*
X119800000Y-66873000D01*
X119753841Y-66881685D01*
X119711447Y-66908965D01*
X119683006Y-66950590D01*
X119673000Y-67000000D01*
X119673000Y-83000000D01*
X119681685Y-83046159D01*
X119708965Y-83088553D01*
X119750590Y-83116994D01*
X119800000Y-83127000D01*
X120012842Y-83127000D01*
X119694921Y-83444921D01*
X119524755Y-83699593D01*
X119485902Y-83894921D01*
X119465000Y-84000000D01*
X119465000Y-84627962D01*
X119364683Y-84646838D01*
X119214009Y-84743794D01*
X119077942Y-84414485D01*
X118787046Y-84123081D01*
X118406777Y-83965180D01*
X117995029Y-83964821D01*
X117614485Y-84122058D01*
X117323081Y-84412954D01*
X117165180Y-84793223D01*
X117164821Y-85204971D01*
X117315000Y-85568433D01*
X117315000Y-88399995D01*
X117314999Y-88400000D01*
X117365367Y-88653212D01*
X117382367Y-88738675D01*
X117486767Y-88894921D01*
X117574210Y-89025790D01*
X117863421Y-89315000D01*
X116067466Y-89315000D01*
X115884590Y-89278624D01*
X115786751Y-89213250D01*
X115721376Y-89115409D01*
X115685000Y-88932534D01*
X115685000Y-81977074D01*
X115920853Y-82330054D01*
X116402622Y-82651961D01*
X116970907Y-82765000D01*
X117029093Y-82765000D01*
X117597378Y-82651961D01*
X118079147Y-82330054D01*
X118401054Y-81848285D01*
X118514093Y-81280000D01*
X118401054Y-80711715D01*
X118079147Y-80229946D01*
X117749974Y-80010000D01*
X118079147Y-79790054D01*
X118401054Y-79308285D01*
X118514093Y-78740000D01*
X118401054Y-78171715D01*
X118079147Y-77689946D01*
X117749974Y-77470000D01*
X118079147Y-77250054D01*
X118401054Y-76768285D01*
X118514093Y-76200000D01*
X118401054Y-75631715D01*
X118079147Y-75149946D01*
X117749974Y-74930000D01*
X118079147Y-74710054D01*
X118401054Y-74228285D01*
X118514093Y-73660000D01*
X118401054Y-73091715D01*
X118079147Y-72609946D01*
X117749974Y-72390000D01*
X118079147Y-72170054D01*
X118401054Y-71688285D01*
X118514093Y-71120000D01*
X118401054Y-70551715D01*
X118079147Y-70069946D01*
X118035223Y-70040597D01*
X118209698Y-69968327D01*
X118388327Y-69789699D01*
X118485000Y-69556310D01*
X118485000Y-68865750D01*
X118326250Y-68707000D01*
X117127000Y-68707000D01*
X117127000Y-68727000D01*
X116873000Y-68727000D01*
X116873000Y-68707000D01*
X116853000Y-68707000D01*
X116853000Y-68453000D01*
X116873000Y-68453000D01*
X116873000Y-67253750D01*
X117127000Y-67253750D01*
X117127000Y-68453000D01*
X118326250Y-68453000D01*
X118485000Y-68294250D01*
X118485000Y-67603690D01*
X118388327Y-67370301D01*
X118209698Y-67191673D01*
X117976309Y-67095000D01*
X117285750Y-67095000D01*
X117127000Y-67253750D01*
X116873000Y-67253750D01*
X116714250Y-67095000D01*
X116023691Y-67095000D01*
X115790302Y-67191673D01*
X115685000Y-67296974D01*
X115685000Y-56067466D01*
X115721376Y-55884591D01*
X115786751Y-55786750D01*
X115884590Y-55721376D01*
X116067466Y-55685000D01*
X142849973Y-55685000D01*
X142848559Y-55685910D01*
G36*
X144365000Y-86199995D02*
X144364999Y-86200000D01*
X144365000Y-86200005D01*
X144365000Y-86799995D01*
X144364999Y-86800000D01*
X144365000Y-86800005D01*
X144365000Y-86999995D01*
X144364999Y-87000000D01*
X144365000Y-87000005D01*
X144365000Y-87033421D01*
X144341183Y-87057238D01*
X144250054Y-86920853D01*
X143768285Y-86598946D01*
X143200000Y-86485907D01*
X142631715Y-86598946D01*
X142149946Y-86920853D01*
X142120597Y-86964777D01*
X142048327Y-86790302D01*
X141869699Y-86611673D01*
X141636310Y-86515000D01*
X140945750Y-86515000D01*
X140787000Y-86673750D01*
X140787000Y-87873000D01*
X140807000Y-87873000D01*
X140807000Y-88127000D01*
X140787000Y-88127000D01*
X140787000Y-88147000D01*
X140533000Y-88147000D01*
X140533000Y-88127000D01*
X140513000Y-88127000D01*
X140513000Y-87873000D01*
X140533000Y-87873000D01*
X140533000Y-86673750D01*
X140374250Y-86515000D01*
X139683690Y-86515000D01*
X139450301Y-86611673D01*
X139310000Y-86751975D01*
X139310000Y-86435000D01*
X139639250Y-86435000D01*
X139798000Y-86276250D01*
X139798000Y-85277000D01*
X139778000Y-85277000D01*
X139778000Y-85023000D01*
X139798000Y-85023000D01*
X139798000Y-85003000D01*
X140052000Y-85003000D01*
X140052000Y-85023000D01*
X140072000Y-85023000D01*
X140072000Y-85277000D01*
X140052000Y-85277000D01*
X140052000Y-86276250D01*
X140210750Y-86435000D01*
X140801309Y-86435000D01*
X141034698Y-86338327D01*
X141213327Y-86159699D01*
X141269654Y-86023713D01*
X141271838Y-86035317D01*
X141410910Y-86251441D01*
X141623110Y-86396431D01*
X141875000Y-86447440D01*
X143375000Y-86447440D01*
X143610317Y-86403162D01*
X143826441Y-86264090D01*
X143971431Y-86051890D01*
X144022440Y-85800000D01*
X144022440Y-84500000D01*
X143978162Y-84264683D01*
X143839090Y-84048559D01*
X143790557Y-84015398D01*
X143831441Y-83989090D01*
X143976431Y-83776890D01*
X144027440Y-83525000D01*
X144027440Y-82875000D01*
X143983162Y-82639683D01*
X143844090Y-82423559D01*
X143631890Y-82278569D01*
X143494880Y-82250824D01*
X143615317Y-82228162D01*
X143682393Y-82185000D01*
X144365000Y-82185000D01*
X144365000Y-86199995D01*
X144365000Y-86199995D01*
G37*
X144365000Y-86199995D02*
X144364999Y-86200000D01*
X144365000Y-86200005D01*
X144365000Y-86799995D01*
X144364999Y-86800000D01*
X144365000Y-86800005D01*
X144365000Y-86999995D01*
X144364999Y-87000000D01*
X144365000Y-87000005D01*
X144365000Y-87033421D01*
X144341183Y-87057238D01*
X144250054Y-86920853D01*
X143768285Y-86598946D01*
X143200000Y-86485907D01*
X142631715Y-86598946D01*
X142149946Y-86920853D01*
X142120597Y-86964777D01*
X142048327Y-86790302D01*
X141869699Y-86611673D01*
X141636310Y-86515000D01*
X140945750Y-86515000D01*
X140787000Y-86673750D01*
X140787000Y-87873000D01*
X140807000Y-87873000D01*
X140807000Y-88127000D01*
X140787000Y-88127000D01*
X140787000Y-88147000D01*
X140533000Y-88147000D01*
X140533000Y-88127000D01*
X140513000Y-88127000D01*
X140513000Y-87873000D01*
X140533000Y-87873000D01*
X140533000Y-86673750D01*
X140374250Y-86515000D01*
X139683690Y-86515000D01*
X139450301Y-86611673D01*
X139310000Y-86751975D01*
X139310000Y-86435000D01*
X139639250Y-86435000D01*
X139798000Y-86276250D01*
X139798000Y-85277000D01*
X139778000Y-85277000D01*
X139778000Y-85023000D01*
X139798000Y-85023000D01*
X139798000Y-85003000D01*
X140052000Y-85003000D01*
X140052000Y-85023000D01*
X140072000Y-85023000D01*
X140072000Y-85277000D01*
X140052000Y-85277000D01*
X140052000Y-86276250D01*
X140210750Y-86435000D01*
X140801309Y-86435000D01*
X141034698Y-86338327D01*
X141213327Y-86159699D01*
X141269654Y-86023713D01*
X141271838Y-86035317D01*
X141410910Y-86251441D01*
X141623110Y-86396431D01*
X141875000Y-86447440D01*
X143375000Y-86447440D01*
X143610317Y-86403162D01*
X143826441Y-86264090D01*
X143971431Y-86051890D01*
X144022440Y-85800000D01*
X144022440Y-84500000D01*
X143978162Y-84264683D01*
X143839090Y-84048559D01*
X143790557Y-84015398D01*
X143831441Y-83989090D01*
X143976431Y-83776890D01*
X144027440Y-83525000D01*
X144027440Y-82875000D01*
X143983162Y-82639683D01*
X143844090Y-82423559D01*
X143631890Y-82278569D01*
X143494880Y-82250824D01*
X143615317Y-82228162D01*
X143682393Y-82185000D01*
X144365000Y-82185000D01*
X144365000Y-86199995D01*
G36*
X140964821Y-72904971D02*
X141115000Y-73268433D01*
X141115000Y-75132415D01*
X140965180Y-75493223D01*
X140964821Y-75904971D01*
X141122058Y-76285515D01*
X141412954Y-76576919D01*
X141793223Y-76734820D01*
X141842560Y-76734863D01*
X141842560Y-77740000D01*
X141886838Y-77975317D01*
X141992809Y-78140000D01*
X141698691Y-78140000D01*
X141465302Y-78236673D01*
X141324064Y-78377910D01*
X141289090Y-78323559D01*
X141076890Y-78178569D01*
X140825000Y-78127560D01*
X140739778Y-78127560D01*
X140700790Y-78069210D01*
X140700787Y-78069208D01*
X140684637Y-78053058D01*
X140726431Y-77991890D01*
X140777440Y-77740000D01*
X140777440Y-76520000D01*
X140733162Y-76284683D01*
X140594090Y-76068559D01*
X140381890Y-75923569D01*
X140130000Y-75872560D01*
X139220000Y-75872560D01*
X138984683Y-75916838D01*
X138768559Y-76055910D01*
X138639359Y-76245000D01*
X135720005Y-76245000D01*
X135720000Y-76244999D01*
X135381325Y-76312367D01*
X135094210Y-76504210D01*
X135094208Y-76504213D01*
X134124210Y-77474210D01*
X133932367Y-77761325D01*
X133932367Y-77761326D01*
X133864999Y-78100000D01*
X133865000Y-78100005D01*
X133865000Y-84299995D01*
X133864999Y-84300000D01*
X133904831Y-84500245D01*
X133932367Y-84638675D01*
X134076963Y-84855079D01*
X134124210Y-84925790D01*
X135740417Y-86541996D01*
X135714683Y-86546838D01*
X135498559Y-86685910D01*
X135353569Y-86898110D01*
X135331699Y-87006107D01*
X135026924Y-86728355D01*
X134616890Y-86558524D01*
X134387000Y-86679845D01*
X134387000Y-87873000D01*
X134407000Y-87873000D01*
X134407000Y-88127000D01*
X134387000Y-88127000D01*
X134387000Y-88147000D01*
X134133000Y-88147000D01*
X134133000Y-88127000D01*
X134113000Y-88127000D01*
X134113000Y-87873000D01*
X134133000Y-87873000D01*
X134133000Y-86679845D01*
X133903110Y-86558524D01*
X133493076Y-86728355D01*
X133324637Y-86881860D01*
X133285000Y-86842154D01*
X133285000Y-86450000D01*
X133240325Y-86225406D01*
X133225245Y-86149593D01*
X133055079Y-85894921D01*
X132530079Y-85369921D01*
X132322440Y-85231181D01*
X132322440Y-85175000D01*
X132278195Y-84939860D01*
X132405079Y-84855079D01*
X132805079Y-84455079D01*
X132855436Y-84379714D01*
X132975245Y-84200406D01*
X133035000Y-83900000D01*
X133035000Y-81108155D01*
X133084555Y-81058686D01*
X133234828Y-80696788D01*
X133235170Y-80304931D01*
X133085529Y-79942771D01*
X132808686Y-79665445D01*
X132446788Y-79515172D01*
X132054931Y-79514830D01*
X131692771Y-79664471D01*
X131415445Y-79941314D01*
X131265172Y-80303212D01*
X131264830Y-80695069D01*
X131414471Y-81057229D01*
X131465000Y-81107846D01*
X131465000Y-83515000D01*
X128982085Y-83515000D01*
X129025245Y-83450406D01*
X129085000Y-83150000D01*
X129085000Y-81558155D01*
X129134555Y-81508686D01*
X129284828Y-81146788D01*
X129285170Y-80754931D01*
X129135529Y-80392771D01*
X129085000Y-80342154D01*
X129085000Y-72775158D01*
X129325157Y-72535000D01*
X140965144Y-72535000D01*
X140964821Y-72904971D01*
X140964821Y-72904971D01*
G37*
X140964821Y-72904971D02*
X141115000Y-73268433D01*
X141115000Y-75132415D01*
X140965180Y-75493223D01*
X140964821Y-75904971D01*
X141122058Y-76285515D01*
X141412954Y-76576919D01*
X141793223Y-76734820D01*
X141842560Y-76734863D01*
X141842560Y-77740000D01*
X141886838Y-77975317D01*
X141992809Y-78140000D01*
X141698691Y-78140000D01*
X141465302Y-78236673D01*
X141324064Y-78377910D01*
X141289090Y-78323559D01*
X141076890Y-78178569D01*
X140825000Y-78127560D01*
X140739778Y-78127560D01*
X140700790Y-78069210D01*
X140700787Y-78069208D01*
X140684637Y-78053058D01*
X140726431Y-77991890D01*
X140777440Y-77740000D01*
X140777440Y-76520000D01*
X140733162Y-76284683D01*
X140594090Y-76068559D01*
X140381890Y-75923569D01*
X140130000Y-75872560D01*
X139220000Y-75872560D01*
X138984683Y-75916838D01*
X138768559Y-76055910D01*
X138639359Y-76245000D01*
X135720005Y-76245000D01*
X135720000Y-76244999D01*
X135381325Y-76312367D01*
X135094210Y-76504210D01*
X135094208Y-76504213D01*
X134124210Y-77474210D01*
X133932367Y-77761325D01*
X133932367Y-77761326D01*
X133864999Y-78100000D01*
X133865000Y-78100005D01*
X133865000Y-84299995D01*
X133864999Y-84300000D01*
X133904831Y-84500245D01*
X133932367Y-84638675D01*
X134076963Y-84855079D01*
X134124210Y-84925790D01*
X135740417Y-86541996D01*
X135714683Y-86546838D01*
X135498559Y-86685910D01*
X135353569Y-86898110D01*
X135331699Y-87006107D01*
X135026924Y-86728355D01*
X134616890Y-86558524D01*
X134387000Y-86679845D01*
X134387000Y-87873000D01*
X134407000Y-87873000D01*
X134407000Y-88127000D01*
X134387000Y-88127000D01*
X134387000Y-88147000D01*
X134133000Y-88147000D01*
X134133000Y-88127000D01*
X134113000Y-88127000D01*
X134113000Y-87873000D01*
X134133000Y-87873000D01*
X134133000Y-86679845D01*
X133903110Y-86558524D01*
X133493076Y-86728355D01*
X133324637Y-86881860D01*
X133285000Y-86842154D01*
X133285000Y-86450000D01*
X133240325Y-86225406D01*
X133225245Y-86149593D01*
X133055079Y-85894921D01*
X132530079Y-85369921D01*
X132322440Y-85231181D01*
X132322440Y-85175000D01*
X132278195Y-84939860D01*
X132405079Y-84855079D01*
X132805079Y-84455079D01*
X132855436Y-84379714D01*
X132975245Y-84200406D01*
X133035000Y-83900000D01*
X133035000Y-81108155D01*
X133084555Y-81058686D01*
X133234828Y-80696788D01*
X133235170Y-80304931D01*
X133085529Y-79942771D01*
X132808686Y-79665445D01*
X132446788Y-79515172D01*
X132054931Y-79514830D01*
X131692771Y-79664471D01*
X131415445Y-79941314D01*
X131265172Y-80303212D01*
X131264830Y-80695069D01*
X131414471Y-81057229D01*
X131465000Y-81107846D01*
X131465000Y-83515000D01*
X128982085Y-83515000D01*
X129025245Y-83450406D01*
X129085000Y-83150000D01*
X129085000Y-81558155D01*
X129134555Y-81508686D01*
X129284828Y-81146788D01*
X129285170Y-80754931D01*
X129135529Y-80392771D01*
X129085000Y-80342154D01*
X129085000Y-72775158D01*
X129325157Y-72535000D01*
X140965144Y-72535000D01*
X140964821Y-72904971D01*
G36*
X138755910Y-78191441D02*
X138790000Y-78214734D01*
X138790000Y-78294995D01*
X138789999Y-78295000D01*
X138811291Y-78402042D01*
X138728569Y-78523110D01*
X138677560Y-78775000D01*
X138677560Y-80025000D01*
X138721838Y-80260317D01*
X138860910Y-80476441D01*
X139073110Y-80621431D01*
X139325000Y-80672440D01*
X139558190Y-80672440D01*
X139523569Y-80723110D01*
X139472560Y-80975000D01*
X139472560Y-81625000D01*
X139498919Y-81765086D01*
X139485000Y-81798690D01*
X139485000Y-81964250D01*
X139643750Y-82123000D01*
X139724051Y-82123000D01*
X139868110Y-82221431D01*
X140005120Y-82249176D01*
X139884683Y-82271838D01*
X139721257Y-82377000D01*
X139643750Y-82377000D01*
X139605750Y-82415000D01*
X139100000Y-82415000D01*
X138799594Y-82474755D01*
X138544921Y-82644921D01*
X137969921Y-83219921D01*
X137799755Y-83474593D01*
X137749994Y-83724755D01*
X137740000Y-83775000D01*
X137740000Y-86520785D01*
X137685000Y-86509648D01*
X137685000Y-86350005D01*
X137685001Y-86350000D01*
X137617633Y-86011326D01*
X137617633Y-86011325D01*
X137425790Y-85724210D01*
X137425787Y-85724208D01*
X135635000Y-83933420D01*
X135635000Y-78466580D01*
X136086579Y-78015000D01*
X138642373Y-78015000D01*
X138755910Y-78191441D01*
X138755910Y-78191441D01*
G37*
X138755910Y-78191441D02*
X138790000Y-78214734D01*
X138790000Y-78294995D01*
X138789999Y-78295000D01*
X138811291Y-78402042D01*
X138728569Y-78523110D01*
X138677560Y-78775000D01*
X138677560Y-80025000D01*
X138721838Y-80260317D01*
X138860910Y-80476441D01*
X139073110Y-80621431D01*
X139325000Y-80672440D01*
X139558190Y-80672440D01*
X139523569Y-80723110D01*
X139472560Y-80975000D01*
X139472560Y-81625000D01*
X139498919Y-81765086D01*
X139485000Y-81798690D01*
X139485000Y-81964250D01*
X139643750Y-82123000D01*
X139724051Y-82123000D01*
X139868110Y-82221431D01*
X140005120Y-82249176D01*
X139884683Y-82271838D01*
X139721257Y-82377000D01*
X139643750Y-82377000D01*
X139605750Y-82415000D01*
X139100000Y-82415000D01*
X138799594Y-82474755D01*
X138544921Y-82644921D01*
X137969921Y-83219921D01*
X137799755Y-83474593D01*
X137749994Y-83724755D01*
X137740000Y-83775000D01*
X137740000Y-86520785D01*
X137685000Y-86509648D01*
X137685000Y-86350005D01*
X137685001Y-86350000D01*
X137617633Y-86011326D01*
X137617633Y-86011325D01*
X137425790Y-85724210D01*
X137425787Y-85724208D01*
X135635000Y-83933420D01*
X135635000Y-78466580D01*
X136086579Y-78015000D01*
X138642373Y-78015000D01*
X138755910Y-78191441D01*
G36*
X148227000Y-78793000D02*
X148247000Y-78793000D01*
X148247000Y-79047000D01*
X148227000Y-79047000D01*
X148227000Y-80240819D01*
X148456892Y-80361486D01*
X148981358Y-80115183D01*
X149315000Y-79749080D01*
X149315000Y-83561826D01*
X149301054Y-83491715D01*
X148979147Y-83009946D01*
X148497378Y-82688039D01*
X147929093Y-82575000D01*
X147870907Y-82575000D01*
X147302622Y-82688039D01*
X147085000Y-82833449D01*
X147085000Y-79968539D01*
X147218642Y-80115183D01*
X147743108Y-80361486D01*
X147973000Y-80240819D01*
X147973000Y-79047000D01*
X147953000Y-79047000D01*
X147953000Y-78793000D01*
X147973000Y-78793000D01*
X147973000Y-78773000D01*
X148227000Y-78773000D01*
X148227000Y-78793000D01*
X148227000Y-78793000D01*
G37*
X148227000Y-78793000D02*
X148247000Y-78793000D01*
X148247000Y-79047000D01*
X148227000Y-79047000D01*
X148227000Y-80240819D01*
X148456892Y-80361486D01*
X148981358Y-80115183D01*
X149315000Y-79749080D01*
X149315000Y-83561826D01*
X149301054Y-83491715D01*
X148979147Y-83009946D01*
X148497378Y-82688039D01*
X147929093Y-82575000D01*
X147870907Y-82575000D01*
X147302622Y-82688039D01*
X147085000Y-82833449D01*
X147085000Y-79968539D01*
X147218642Y-80115183D01*
X147743108Y-80361486D01*
X147973000Y-80240819D01*
X147973000Y-79047000D01*
X147953000Y-79047000D01*
X147953000Y-78793000D01*
X147973000Y-78793000D01*
X147973000Y-78773000D01*
X148227000Y-78773000D01*
X148227000Y-78793000D01*
G36*
X144365000Y-78316579D02*
X144365000Y-80415000D01*
X143833026Y-80415000D01*
X143863327Y-80384699D01*
X143960000Y-80151310D01*
X143960000Y-79685750D01*
X143801250Y-79527000D01*
X142702000Y-79527000D01*
X142702000Y-79547000D01*
X142448000Y-79547000D01*
X142448000Y-79527000D01*
X142428000Y-79527000D01*
X142428000Y-79273000D01*
X142448000Y-79273000D01*
X142448000Y-79253000D01*
X142702000Y-79253000D01*
X142702000Y-79273000D01*
X143801250Y-79273000D01*
X143960000Y-79114250D01*
X143960000Y-78648690D01*
X143863327Y-78415301D01*
X143730158Y-78282133D01*
X143851441Y-78204090D01*
X143980641Y-78015000D01*
X144063420Y-78015000D01*
X144365000Y-78316579D01*
X144365000Y-78316579D01*
G37*
X144365000Y-78316579D02*
X144365000Y-80415000D01*
X143833026Y-80415000D01*
X143863327Y-80384699D01*
X143960000Y-80151310D01*
X143960000Y-79685750D01*
X143801250Y-79527000D01*
X142702000Y-79527000D01*
X142702000Y-79547000D01*
X142448000Y-79547000D01*
X142448000Y-79527000D01*
X142428000Y-79527000D01*
X142428000Y-79273000D01*
X142448000Y-79273000D01*
X142448000Y-79253000D01*
X142702000Y-79253000D01*
X142702000Y-79273000D01*
X143801250Y-79273000D01*
X143960000Y-79114250D01*
X143960000Y-78648690D01*
X143863327Y-78415301D01*
X143730158Y-78282133D01*
X143851441Y-78204090D01*
X143980641Y-78015000D01*
X144063420Y-78015000D01*
X144365000Y-78316579D01*
G36*
X141502560Y-64450000D02*
X141546838Y-64685317D01*
X141685910Y-64901441D01*
X141898110Y-65046431D01*
X142015000Y-65070102D01*
X142015000Y-69599995D01*
X142014999Y-69600000D01*
X142064099Y-69846838D01*
X142082367Y-69938675D01*
X142233238Y-70164471D01*
X142274210Y-70225790D01*
X142974208Y-70925787D01*
X142974210Y-70925790D01*
X143032892Y-70965000D01*
X139235030Y-70965000D01*
X139235170Y-70804931D01*
X139085529Y-70442771D01*
X138808686Y-70165445D01*
X138446788Y-70015172D01*
X138054931Y-70014830D01*
X137692771Y-70164471D01*
X137642154Y-70215000D01*
X136200550Y-70215000D01*
X136400406Y-70175246D01*
X136655078Y-70005080D01*
X137305079Y-69355079D01*
X137475245Y-69100407D01*
X137535000Y-68800000D01*
X137535000Y-67485000D01*
X137714250Y-67485000D01*
X137873000Y-67326250D01*
X137873000Y-66227000D01*
X137853000Y-66227000D01*
X137853000Y-65973000D01*
X137873000Y-65973000D01*
X137873000Y-65953000D01*
X138127000Y-65953000D01*
X138127000Y-65973000D01*
X138147000Y-65973000D01*
X138147000Y-66227000D01*
X138127000Y-66227000D01*
X138127000Y-67326250D01*
X138285750Y-67485000D01*
X138776310Y-67485000D01*
X139009699Y-67388327D01*
X139188327Y-67209698D01*
X139202487Y-67175513D01*
X139215301Y-67188327D01*
X139448690Y-67285000D01*
X139914250Y-67285000D01*
X140073000Y-67126250D01*
X140073000Y-66027000D01*
X140327000Y-66027000D01*
X140327000Y-67126250D01*
X140485750Y-67285000D01*
X140951310Y-67285000D01*
X141184699Y-67188327D01*
X141363327Y-67009698D01*
X141460000Y-66776309D01*
X141460000Y-66185750D01*
X141301250Y-66027000D01*
X140327000Y-66027000D01*
X140073000Y-66027000D01*
X140053000Y-66027000D01*
X140053000Y-65773000D01*
X140073000Y-65773000D01*
X140073000Y-65753000D01*
X140327000Y-65753000D01*
X140327000Y-65773000D01*
X141301250Y-65773000D01*
X141460000Y-65614250D01*
X141460000Y-65023691D01*
X141363327Y-64790302D01*
X141222090Y-64649064D01*
X141276441Y-64614090D01*
X141421431Y-64401890D01*
X141434977Y-64335000D01*
X141502560Y-64335000D01*
X141502560Y-64450000D01*
X141502560Y-64450000D01*
G37*
X141502560Y-64450000D02*
X141546838Y-64685317D01*
X141685910Y-64901441D01*
X141898110Y-65046431D01*
X142015000Y-65070102D01*
X142015000Y-69599995D01*
X142014999Y-69600000D01*
X142064099Y-69846838D01*
X142082367Y-69938675D01*
X142233238Y-70164471D01*
X142274210Y-70225790D01*
X142974208Y-70925787D01*
X142974210Y-70925790D01*
X143032892Y-70965000D01*
X139235030Y-70965000D01*
X139235170Y-70804931D01*
X139085529Y-70442771D01*
X138808686Y-70165445D01*
X138446788Y-70015172D01*
X138054931Y-70014830D01*
X137692771Y-70164471D01*
X137642154Y-70215000D01*
X136200550Y-70215000D01*
X136400406Y-70175246D01*
X136655078Y-70005080D01*
X137305079Y-69355079D01*
X137475245Y-69100407D01*
X137535000Y-68800000D01*
X137535000Y-67485000D01*
X137714250Y-67485000D01*
X137873000Y-67326250D01*
X137873000Y-66227000D01*
X137853000Y-66227000D01*
X137853000Y-65973000D01*
X137873000Y-65973000D01*
X137873000Y-65953000D01*
X138127000Y-65953000D01*
X138127000Y-65973000D01*
X138147000Y-65973000D01*
X138147000Y-66227000D01*
X138127000Y-66227000D01*
X138127000Y-67326250D01*
X138285750Y-67485000D01*
X138776310Y-67485000D01*
X139009699Y-67388327D01*
X139188327Y-67209698D01*
X139202487Y-67175513D01*
X139215301Y-67188327D01*
X139448690Y-67285000D01*
X139914250Y-67285000D01*
X140073000Y-67126250D01*
X140073000Y-66027000D01*
X140327000Y-66027000D01*
X140327000Y-67126250D01*
X140485750Y-67285000D01*
X140951310Y-67285000D01*
X141184699Y-67188327D01*
X141363327Y-67009698D01*
X141460000Y-66776309D01*
X141460000Y-66185750D01*
X141301250Y-66027000D01*
X140327000Y-66027000D01*
X140073000Y-66027000D01*
X140053000Y-66027000D01*
X140053000Y-65773000D01*
X140073000Y-65773000D01*
X140073000Y-65753000D01*
X140327000Y-65753000D01*
X140327000Y-65773000D01*
X141301250Y-65773000D01*
X141460000Y-65614250D01*
X141460000Y-65023691D01*
X141363327Y-64790302D01*
X141222090Y-64649064D01*
X141276441Y-64614090D01*
X141421431Y-64401890D01*
X141434977Y-64335000D01*
X141502560Y-64335000D01*
X141502560Y-64450000D01*
G36*
X149115409Y-55721376D02*
X149213250Y-55786751D01*
X149278624Y-55884590D01*
X149315000Y-56067466D01*
X149315000Y-69930854D01*
X149201890Y-69853569D01*
X148985000Y-69809648D01*
X148985000Y-69450005D01*
X148985001Y-69450000D01*
X148917633Y-69111326D01*
X148917633Y-69111325D01*
X148725790Y-68824210D01*
X148725787Y-68824208D01*
X148075790Y-68174210D01*
X147906846Y-68061326D01*
X147788675Y-67982367D01*
X147732484Y-67971190D01*
X147450000Y-67914999D01*
X147449995Y-67915000D01*
X146135000Y-67915000D01*
X146135000Y-67547038D01*
X146235317Y-67528162D01*
X146451441Y-67389090D01*
X146497969Y-67320994D01*
X146640302Y-67463327D01*
X146873691Y-67560000D01*
X147464250Y-67560000D01*
X147623000Y-67401250D01*
X147623000Y-66427000D01*
X147877000Y-66427000D01*
X147877000Y-67401250D01*
X148035750Y-67560000D01*
X148626309Y-67560000D01*
X148859698Y-67463327D01*
X149038327Y-67284699D01*
X149135000Y-67051310D01*
X149135000Y-66585750D01*
X148976250Y-66427000D01*
X147877000Y-66427000D01*
X147623000Y-66427000D01*
X147603000Y-66427000D01*
X147603000Y-66173000D01*
X147623000Y-66173000D01*
X147623000Y-66153000D01*
X147877000Y-66153000D01*
X147877000Y-66173000D01*
X148976250Y-66173000D01*
X149135000Y-66014250D01*
X149135000Y-65548690D01*
X149038327Y-65315301D01*
X148859698Y-65136673D01*
X148626309Y-65040000D01*
X148484949Y-65040000D01*
X148609699Y-64988327D01*
X148788327Y-64809698D01*
X148885000Y-64576309D01*
X148885000Y-63735750D01*
X148726250Y-63577000D01*
X147627000Y-63577000D01*
X147627000Y-63597000D01*
X147373000Y-63597000D01*
X147373000Y-63577000D01*
X147353000Y-63577000D01*
X147353000Y-63323000D01*
X147373000Y-63323000D01*
X147373000Y-61973750D01*
X147627000Y-61973750D01*
X147627000Y-63323000D01*
X148726250Y-63323000D01*
X148885000Y-63164250D01*
X148885000Y-62323691D01*
X148788327Y-62090302D01*
X148609699Y-61911673D01*
X148376310Y-61815000D01*
X147785750Y-61815000D01*
X147627000Y-61973750D01*
X147373000Y-61973750D01*
X147214250Y-61815000D01*
X146623690Y-61815000D01*
X146390301Y-61911673D01*
X146348340Y-61953634D01*
X146201890Y-61853569D01*
X146085000Y-61829898D01*
X146085000Y-60960005D01*
X146085001Y-60960000D01*
X146085000Y-60959995D01*
X146085000Y-60500005D01*
X146085001Y-60500000D01*
X146085000Y-60499995D01*
X146085000Y-60000005D01*
X146085001Y-60000000D01*
X146085000Y-59999995D01*
X146085000Y-58797440D01*
X147100000Y-58797440D01*
X147335317Y-58753162D01*
X147551441Y-58614090D01*
X147696431Y-58401890D01*
X147747440Y-58150000D01*
X147747440Y-56150000D01*
X147703162Y-55914683D01*
X147564090Y-55698559D01*
X147544246Y-55685000D01*
X148932534Y-55685000D01*
X149115409Y-55721376D01*
X149115409Y-55721376D01*
G37*
X149115409Y-55721376D02*
X149213250Y-55786751D01*
X149278624Y-55884590D01*
X149315000Y-56067466D01*
X149315000Y-69930854D01*
X149201890Y-69853569D01*
X148985000Y-69809648D01*
X148985000Y-69450005D01*
X148985001Y-69450000D01*
X148917633Y-69111326D01*
X148917633Y-69111325D01*
X148725790Y-68824210D01*
X148725787Y-68824208D01*
X148075790Y-68174210D01*
X147906846Y-68061326D01*
X147788675Y-67982367D01*
X147732484Y-67971190D01*
X147450000Y-67914999D01*
X147449995Y-67915000D01*
X146135000Y-67915000D01*
X146135000Y-67547038D01*
X146235317Y-67528162D01*
X146451441Y-67389090D01*
X146497969Y-67320994D01*
X146640302Y-67463327D01*
X146873691Y-67560000D01*
X147464250Y-67560000D01*
X147623000Y-67401250D01*
X147623000Y-66427000D01*
X147877000Y-66427000D01*
X147877000Y-67401250D01*
X148035750Y-67560000D01*
X148626309Y-67560000D01*
X148859698Y-67463327D01*
X149038327Y-67284699D01*
X149135000Y-67051310D01*
X149135000Y-66585750D01*
X148976250Y-66427000D01*
X147877000Y-66427000D01*
X147623000Y-66427000D01*
X147603000Y-66427000D01*
X147603000Y-66173000D01*
X147623000Y-66173000D01*
X147623000Y-66153000D01*
X147877000Y-66153000D01*
X147877000Y-66173000D01*
X148976250Y-66173000D01*
X149135000Y-66014250D01*
X149135000Y-65548690D01*
X149038327Y-65315301D01*
X148859698Y-65136673D01*
X148626309Y-65040000D01*
X148484949Y-65040000D01*
X148609699Y-64988327D01*
X148788327Y-64809698D01*
X148885000Y-64576309D01*
X148885000Y-63735750D01*
X148726250Y-63577000D01*
X147627000Y-63577000D01*
X147627000Y-63597000D01*
X147373000Y-63597000D01*
X147373000Y-63577000D01*
X147353000Y-63577000D01*
X147353000Y-63323000D01*
X147373000Y-63323000D01*
X147373000Y-61973750D01*
X147627000Y-61973750D01*
X147627000Y-63323000D01*
X148726250Y-63323000D01*
X148885000Y-63164250D01*
X148885000Y-62323691D01*
X148788327Y-62090302D01*
X148609699Y-61911673D01*
X148376310Y-61815000D01*
X147785750Y-61815000D01*
X147627000Y-61973750D01*
X147373000Y-61973750D01*
X147214250Y-61815000D01*
X146623690Y-61815000D01*
X146390301Y-61911673D01*
X146348340Y-61953634D01*
X146201890Y-61853569D01*
X146085000Y-61829898D01*
X146085000Y-60960005D01*
X146085001Y-60960000D01*
X146085000Y-60959995D01*
X146085000Y-60500005D01*
X146085001Y-60500000D01*
X146085000Y-60499995D01*
X146085000Y-60000005D01*
X146085001Y-60000000D01*
X146085000Y-59999995D01*
X146085000Y-58797440D01*
X147100000Y-58797440D01*
X147335317Y-58753162D01*
X147551441Y-58614090D01*
X147696431Y-58401890D01*
X147747440Y-58150000D01*
X147747440Y-56150000D01*
X147703162Y-55914683D01*
X147564090Y-55698559D01*
X147544246Y-55685000D01*
X148932534Y-55685000D01*
X149115409Y-55721376D01*
M02*
