G04 #@! TF.FileFunction,Legend,Top*
%FSLAX46Y46*%
G04 Gerber Fmt 4.6, Leading zero omitted, Abs format (unit mm)*
G04 Created by KiCad (PCBNEW 4.0.7) date Tuesday, 24 April 2018 'PMt' 13:45:20*
%MOMM*%
%LPD*%
G01*
G04 APERTURE LIST*
%ADD10C,0.100000*%
%ADD11C,0.200000*%
%ADD12C,0.150000*%
%ADD13C,0.250000*%
%ADD14C,0.152400*%
%ADD15C,0.120000*%
G04 APERTURE END LIST*
D10*
D11*
X124719048Y-63007143D02*
X125480953Y-63007143D01*
X124719048Y-60507143D02*
X125480953Y-60507143D01*
X125100001Y-60811905D02*
X125100001Y-60202381D01*
X144852381Y-87566667D02*
X144852381Y-87376190D01*
X144900000Y-87280952D01*
X144995238Y-87185714D01*
X145185714Y-87138095D01*
X145519048Y-87138095D01*
X145709524Y-87185714D01*
X145804762Y-87280952D01*
X145852381Y-87376190D01*
X145852381Y-87566667D01*
X145804762Y-87661905D01*
X145709524Y-87757143D01*
X145519048Y-87804762D01*
X145185714Y-87804762D01*
X144995238Y-87757143D01*
X144900000Y-87661905D01*
X144852381Y-87566667D01*
X145185714Y-86709524D02*
X145852381Y-86709524D01*
X145280952Y-86709524D02*
X145233333Y-86661905D01*
X145185714Y-86566667D01*
X145185714Y-86423809D01*
X145233333Y-86328571D01*
X145328571Y-86280952D01*
X145852381Y-86280952D01*
X144804762Y-85090476D02*
X146090476Y-85947619D01*
X144852381Y-84566667D02*
X144852381Y-84376190D01*
X144900000Y-84280952D01*
X144995238Y-84185714D01*
X145185714Y-84138095D01*
X145519048Y-84138095D01*
X145709524Y-84185714D01*
X145804762Y-84280952D01*
X145852381Y-84376190D01*
X145852381Y-84566667D01*
X145804762Y-84661905D01*
X145709524Y-84757143D01*
X145519048Y-84804762D01*
X145185714Y-84804762D01*
X144995238Y-84757143D01*
X144900000Y-84661905D01*
X144852381Y-84566667D01*
X145185714Y-83852381D02*
X145185714Y-83471429D01*
X145852381Y-83709524D02*
X144995238Y-83709524D01*
X144900000Y-83661905D01*
X144852381Y-83566667D01*
X144852381Y-83471429D01*
X145185714Y-83280952D02*
X145185714Y-82900000D01*
X145852381Y-83138095D02*
X144995238Y-83138095D01*
X144900000Y-83090476D01*
X144852381Y-82995238D01*
X144852381Y-82900000D01*
D12*
X135152381Y-55238095D02*
X135609524Y-55238095D01*
X135380953Y-55238095D02*
X135380953Y-56038095D01*
X135457143Y-55923810D01*
X135533334Y-55847619D01*
X135609524Y-55809524D01*
X134847619Y-55961905D02*
X134809524Y-56000000D01*
X134733333Y-56038095D01*
X134542857Y-56038095D01*
X134466667Y-56000000D01*
X134428571Y-55961905D01*
X134390476Y-55885714D01*
X134390476Y-55809524D01*
X134428571Y-55695238D01*
X134885714Y-55238095D01*
X134390476Y-55238095D01*
X131152381Y-55238095D02*
X131609524Y-55238095D01*
X131380953Y-55238095D02*
X131380953Y-56038095D01*
X131457143Y-55923810D01*
X131533334Y-55847619D01*
X131609524Y-55809524D01*
X130428571Y-56038095D02*
X130809524Y-56038095D01*
X130847619Y-55657143D01*
X130809524Y-55695238D01*
X130733333Y-55733333D01*
X130542857Y-55733333D01*
X130466667Y-55695238D01*
X130428571Y-55657143D01*
X130390476Y-55580952D01*
X130390476Y-55390476D01*
X130428571Y-55314286D01*
X130466667Y-55276190D01*
X130542857Y-55238095D01*
X130733333Y-55238095D01*
X130809524Y-55276190D01*
X130847619Y-55314286D01*
X127990476Y-55666667D02*
X127609524Y-55666667D01*
X128066667Y-55438095D02*
X127800000Y-56238095D01*
X127533333Y-55438095D01*
X127266667Y-55438095D02*
X127266667Y-56238095D01*
X127076191Y-56238095D01*
X126961905Y-56200000D01*
X126885714Y-56123810D01*
X126847619Y-56047619D01*
X126809524Y-55895238D01*
X126809524Y-55780952D01*
X126847619Y-55628571D01*
X126885714Y-55552381D01*
X126961905Y-55476190D01*
X127076191Y-55438095D01*
X127266667Y-55438095D01*
X126009524Y-55514286D02*
X126047619Y-55476190D01*
X126161905Y-55438095D01*
X126238095Y-55438095D01*
X126352381Y-55476190D01*
X126428572Y-55552381D01*
X126466667Y-55628571D01*
X126504762Y-55780952D01*
X126504762Y-55895238D01*
X126466667Y-56047619D01*
X126428572Y-56123810D01*
X126352381Y-56200000D01*
X126238095Y-56238095D01*
X126161905Y-56238095D01*
X126047619Y-56200000D01*
X126009524Y-56161905D01*
X146323810Y-74571428D02*
X146361905Y-74457142D01*
X146361905Y-74266666D01*
X146323810Y-74190476D01*
X146285714Y-74152380D01*
X146209524Y-74114285D01*
X146133333Y-74114285D01*
X146057143Y-74152380D01*
X146019048Y-74190476D01*
X145980952Y-74266666D01*
X145942857Y-74419047D01*
X145904762Y-74495238D01*
X145866667Y-74533333D01*
X145790476Y-74571428D01*
X145714286Y-74571428D01*
X145638095Y-74533333D01*
X145600000Y-74495238D01*
X145561905Y-74419047D01*
X145561905Y-74228571D01*
X145600000Y-74114285D01*
X146361905Y-73771428D02*
X145561905Y-73771428D01*
X145561905Y-73580952D01*
X145600000Y-73466666D01*
X145676190Y-73390475D01*
X145752381Y-73352380D01*
X145904762Y-73314285D01*
X146019048Y-73314285D01*
X146171429Y-73352380D01*
X146247619Y-73390475D01*
X146323810Y-73466666D01*
X146361905Y-73580952D01*
X146361905Y-73771428D01*
X146133333Y-73009523D02*
X146133333Y-72628571D01*
X146361905Y-73085714D02*
X145561905Y-72819047D01*
X146361905Y-72552380D01*
X146323810Y-77552381D02*
X146361905Y-77438095D01*
X146361905Y-77247619D01*
X146323810Y-77171429D01*
X146285714Y-77133333D01*
X146209524Y-77095238D01*
X146133333Y-77095238D01*
X146057143Y-77133333D01*
X146019048Y-77171429D01*
X145980952Y-77247619D01*
X145942857Y-77400000D01*
X145904762Y-77476191D01*
X145866667Y-77514286D01*
X145790476Y-77552381D01*
X145714286Y-77552381D01*
X145638095Y-77514286D01*
X145600000Y-77476191D01*
X145561905Y-77400000D01*
X145561905Y-77209524D01*
X145600000Y-77095238D01*
X146285714Y-76295238D02*
X146323810Y-76333333D01*
X146361905Y-76447619D01*
X146361905Y-76523809D01*
X146323810Y-76638095D01*
X146247619Y-76714286D01*
X146171429Y-76752381D01*
X146019048Y-76790476D01*
X145904762Y-76790476D01*
X145752381Y-76752381D01*
X145676190Y-76714286D01*
X145600000Y-76638095D01*
X145561905Y-76523809D01*
X145561905Y-76447619D01*
X145600000Y-76333333D01*
X145638095Y-76295238D01*
X146361905Y-75571428D02*
X146361905Y-75952381D01*
X145561905Y-75952381D01*
D13*
X146071429Y-79380952D02*
X146071429Y-78619047D01*
D11*
X145619048Y-71257143D02*
X146380953Y-71257143D01*
X146000001Y-71561905D02*
X146000001Y-70952381D01*
X145252381Y-76176190D02*
X144252381Y-76176190D01*
X144347619Y-75747619D02*
X144300000Y-75700000D01*
X144252381Y-75604762D01*
X144252381Y-75366666D01*
X144300000Y-75271428D01*
X144347619Y-75223809D01*
X144442857Y-75176190D01*
X144538095Y-75176190D01*
X144680952Y-75223809D01*
X145252381Y-75795238D01*
X145252381Y-75176190D01*
X145157143Y-74176190D02*
X145204762Y-74223809D01*
X145252381Y-74366666D01*
X145252381Y-74461904D01*
X145204762Y-74604762D01*
X145109524Y-74700000D01*
X145014286Y-74747619D01*
X144823810Y-74795238D01*
X144680952Y-74795238D01*
X144490476Y-74747619D01*
X144395238Y-74700000D01*
X144300000Y-74604762D01*
X144252381Y-74461904D01*
X144252381Y-74366666D01*
X144300000Y-74223809D01*
X144347619Y-74176190D01*
X140652381Y-84452381D02*
X140176190Y-84452381D01*
X140128571Y-84928571D01*
X140176190Y-84880952D01*
X140271428Y-84833333D01*
X140509524Y-84833333D01*
X140604762Y-84880952D01*
X140652381Y-84928571D01*
X140700000Y-85023810D01*
X140700000Y-85261905D01*
X140652381Y-85357143D01*
X140604762Y-85404762D01*
X140509524Y-85452381D01*
X140271428Y-85452381D01*
X140176190Y-85404762D01*
X140128571Y-85357143D01*
X140985714Y-84452381D02*
X141319047Y-85452381D01*
X141652381Y-84452381D01*
X142414286Y-85404762D02*
X142319048Y-85452381D01*
X142128571Y-85452381D01*
X142033333Y-85404762D01*
X141985714Y-85357143D01*
X141938095Y-85261905D01*
X141938095Y-84976190D01*
X141985714Y-84880952D01*
X142033333Y-84833333D01*
X142128571Y-84785714D01*
X142319048Y-84785714D01*
X142414286Y-84833333D01*
X143271429Y-85404762D02*
X143176191Y-85452381D01*
X142985714Y-85452381D01*
X142890476Y-85404762D01*
X142842857Y-85357143D01*
X142795238Y-85261905D01*
X142795238Y-84976190D01*
X142842857Y-84880952D01*
X142890476Y-84833333D01*
X142985714Y-84785714D01*
X143176191Y-84785714D01*
X143271429Y-84833333D01*
D13*
X140219048Y-85971429D02*
X140980953Y-85971429D01*
X142819048Y-85971429D02*
X143580953Y-85971429D01*
X143200001Y-86352381D02*
X143200001Y-85590476D01*
X136379048Y-86021429D02*
X137140953Y-86021429D01*
X136760001Y-86402381D02*
X136760001Y-85640476D01*
X133749048Y-85971429D02*
X134510953Y-85971429D01*
D11*
X134387619Y-84748571D02*
X134530476Y-84796190D01*
X134578095Y-84843810D01*
X134625714Y-84939048D01*
X134625714Y-85081905D01*
X134578095Y-85177143D01*
X134530476Y-85224762D01*
X134435238Y-85272381D01*
X134054285Y-85272381D01*
X134054285Y-84272381D01*
X134387619Y-84272381D01*
X134482857Y-84320000D01*
X134530476Y-84367619D01*
X134578095Y-84462857D01*
X134578095Y-84558095D01*
X134530476Y-84653333D01*
X134482857Y-84700952D01*
X134387619Y-84748571D01*
X134054285Y-84748571D01*
X135482857Y-85272381D02*
X135482857Y-84748571D01*
X135435238Y-84653333D01*
X135340000Y-84605714D01*
X135149523Y-84605714D01*
X135054285Y-84653333D01*
X135482857Y-85224762D02*
X135387619Y-85272381D01*
X135149523Y-85272381D01*
X135054285Y-85224762D01*
X135006666Y-85129524D01*
X135006666Y-85034286D01*
X135054285Y-84939048D01*
X135149523Y-84891429D01*
X135387619Y-84891429D01*
X135482857Y-84843810D01*
X135816190Y-84605714D02*
X136197142Y-84605714D01*
X135959047Y-84272381D02*
X135959047Y-85129524D01*
X136006666Y-85224762D01*
X136101904Y-85272381D01*
X136197142Y-85272381D01*
X136387619Y-84605714D02*
X136768571Y-84605714D01*
X136530476Y-84272381D02*
X136530476Y-85129524D01*
X136578095Y-85224762D01*
X136673333Y-85272381D01*
X136768571Y-85272381D01*
D14*
X143109000Y-83016000D02*
X143871000Y-83016000D01*
X143871000Y-83016000D02*
X143871000Y-67014000D01*
X143871000Y-67014000D02*
X143109000Y-67014000D01*
D12*
X128975000Y-89375980D02*
X128975000Y-86675980D01*
X127475000Y-89375980D02*
X127475000Y-86675980D01*
X128375000Y-87875980D02*
X128125000Y-87875980D01*
X128125000Y-87875980D02*
X128275000Y-88025980D01*
X127875000Y-88125980D02*
X128575000Y-88125980D01*
X128225000Y-87775980D02*
X128225000Y-87425980D01*
X128225000Y-88125980D02*
X127875000Y-87775980D01*
X127875000Y-87775980D02*
X128575000Y-87775980D01*
X128575000Y-87775980D02*
X128225000Y-88125980D01*
X131725000Y-89375980D02*
X131725000Y-86675980D01*
X130225000Y-89375980D02*
X130225000Y-86675980D01*
X131125000Y-87875980D02*
X130875000Y-87875980D01*
X130875000Y-87875980D02*
X131025000Y-88025980D01*
X130625000Y-88125980D02*
X131325000Y-88125980D01*
X130975000Y-87775980D02*
X130975000Y-87425980D01*
X130975000Y-88125980D02*
X130625000Y-87775980D01*
X130625000Y-87775980D02*
X131325000Y-87775980D01*
X131325000Y-87775980D02*
X130975000Y-88125980D01*
D15*
X125670000Y-64330000D02*
X128330000Y-64330000D01*
X125670000Y-59190000D02*
X125670000Y-64330000D01*
X128330000Y-59190000D02*
X128330000Y-64330000D01*
X125670000Y-59190000D02*
X128330000Y-59190000D01*
X125670000Y-57920000D02*
X125670000Y-56590000D01*
X125670000Y-56590000D02*
X127000000Y-56590000D01*
X133670000Y-64330000D02*
X136330000Y-64330000D01*
X133670000Y-59190000D02*
X133670000Y-64330000D01*
X136330000Y-59190000D02*
X136330000Y-64330000D01*
X133670000Y-59190000D02*
X136330000Y-59190000D01*
X133670000Y-57920000D02*
X133670000Y-56590000D01*
X133670000Y-56590000D02*
X135000000Y-56590000D01*
X129670000Y-64330000D02*
X132330000Y-64330000D01*
X129670000Y-59190000D02*
X129670000Y-64330000D01*
X132330000Y-59190000D02*
X132330000Y-64330000D01*
X129670000Y-59190000D02*
X132330000Y-59190000D01*
X129670000Y-57920000D02*
X129670000Y-56590000D01*
X129670000Y-56590000D02*
X131000000Y-56590000D01*
X149230000Y-82730000D02*
X146570000Y-82730000D01*
X149230000Y-85330000D02*
X149230000Y-82730000D01*
X146570000Y-85330000D02*
X146570000Y-82730000D01*
X149230000Y-85330000D02*
X146570000Y-85330000D01*
X149230000Y-86600000D02*
X149230000Y-87930000D01*
X149230000Y-87930000D02*
X147900000Y-87930000D01*
D12*
X122775000Y-60800000D02*
X122775000Y-59600000D01*
X124525000Y-59600000D02*
X124525000Y-60800000D01*
X120225000Y-60800000D02*
X120225000Y-59600000D01*
X121975000Y-59600000D02*
X121975000Y-60800000D01*
X139750000Y-58000000D02*
G75*
G03X139750000Y-58000000I-750000J0D01*
G01*
X137900000Y-56350000D02*
X137600000Y-56350000D01*
X137600000Y-56350000D02*
X137600000Y-59650000D01*
X137600000Y-59650000D02*
X137900000Y-59650000D01*
X140100000Y-56350000D02*
X140400000Y-56350000D01*
X140400000Y-56350000D02*
X140400000Y-59650000D01*
X140400000Y-59650000D02*
X140100000Y-59650000D01*
X143750000Y-58000000D02*
G75*
G03X143750000Y-58000000I-750000J0D01*
G01*
X141900000Y-56350000D02*
X141600000Y-56350000D01*
X141600000Y-56350000D02*
X141600000Y-59650000D01*
X141600000Y-59650000D02*
X141900000Y-59650000D01*
X144100000Y-56350000D02*
X144400000Y-56350000D01*
X144400000Y-56350000D02*
X144400000Y-59650000D01*
X144400000Y-59650000D02*
X144100000Y-59650000D01*
D15*
X146770000Y-80250000D02*
X149430000Y-80250000D01*
X146770000Y-72570000D02*
X146770000Y-80250000D01*
X149430000Y-72570000D02*
X149430000Y-80250000D01*
X146770000Y-72570000D02*
X149430000Y-72570000D01*
X146770000Y-71300000D02*
X146770000Y-69970000D01*
X146770000Y-69970000D02*
X148100000Y-69970000D01*
X144530000Y-89330000D02*
X144530000Y-86670000D01*
X141930000Y-89330000D02*
X144530000Y-89330000D01*
X141930000Y-86670000D02*
X144530000Y-86670000D01*
X141930000Y-89330000D02*
X141930000Y-86670000D01*
X140660000Y-89330000D02*
X139330000Y-89330000D01*
X139330000Y-89330000D02*
X139330000Y-88000000D01*
X132930000Y-86670000D02*
X132930000Y-89330000D01*
X135530000Y-86670000D02*
X132930000Y-86670000D01*
X135530000Y-89330000D02*
X132930000Y-89330000D01*
X135530000Y-86670000D02*
X135530000Y-89330000D01*
X136800000Y-86670000D02*
X138130000Y-86670000D01*
X138130000Y-86670000D02*
X138130000Y-88000000D01*
X115670000Y-82610000D02*
X118330000Y-82610000D01*
X115670000Y-69850000D02*
X115670000Y-82610000D01*
X118330000Y-69850000D02*
X118330000Y-82610000D01*
X115670000Y-69850000D02*
X118330000Y-69850000D01*
X115670000Y-68580000D02*
X115670000Y-67250000D01*
X115670000Y-67250000D02*
X117000000Y-67250000D01*
D12*
X144452381Y-67361905D02*
X145261905Y-67361905D01*
X145357143Y-67314286D01*
X145404762Y-67266667D01*
X145452381Y-67171429D01*
X145452381Y-66980952D01*
X145404762Y-66885714D01*
X145357143Y-66838095D01*
X145261905Y-66790476D01*
X144452381Y-66790476D01*
X144452381Y-66409524D02*
X144452381Y-65790476D01*
X144833333Y-66123810D01*
X144833333Y-65980952D01*
X144880952Y-65885714D01*
X144928571Y-65838095D01*
X145023810Y-65790476D01*
X145261905Y-65790476D01*
X145357143Y-65838095D01*
X145404762Y-65885714D01*
X145452381Y-65980952D01*
X145452381Y-66266667D01*
X145404762Y-66361905D01*
X145357143Y-66409524D01*
X127561905Y-85627381D02*
X127561905Y-84627381D01*
X127800000Y-84627381D01*
X127942858Y-84675000D01*
X128038096Y-84770238D01*
X128085715Y-84865476D01*
X128133334Y-85055952D01*
X128133334Y-85198810D01*
X128085715Y-85389286D01*
X128038096Y-85484524D01*
X127942858Y-85579762D01*
X127800000Y-85627381D01*
X127561905Y-85627381D01*
X128466667Y-84627381D02*
X129085715Y-84627381D01*
X128752381Y-85008333D01*
X128895239Y-85008333D01*
X128990477Y-85055952D01*
X129038096Y-85103571D01*
X129085715Y-85198810D01*
X129085715Y-85436905D01*
X129038096Y-85532143D01*
X128990477Y-85579762D01*
X128895239Y-85627381D01*
X128609524Y-85627381D01*
X128514286Y-85579762D01*
X128466667Y-85532143D01*
X130186905Y-85652381D02*
X130186905Y-84652381D01*
X130425000Y-84652381D01*
X130567858Y-84700000D01*
X130663096Y-84795238D01*
X130710715Y-84890476D01*
X130758334Y-85080952D01*
X130758334Y-85223810D01*
X130710715Y-85414286D01*
X130663096Y-85509524D01*
X130567858Y-85604762D01*
X130425000Y-85652381D01*
X130186905Y-85652381D01*
X131615477Y-84985714D02*
X131615477Y-85652381D01*
X131377381Y-84604762D02*
X131139286Y-85319048D01*
X131758334Y-85319048D01*
X126666667Y-64652381D02*
X126666667Y-65366667D01*
X126619047Y-65509524D01*
X126523809Y-65604762D01*
X126380952Y-65652381D01*
X126285714Y-65652381D01*
X127095238Y-64747619D02*
X127142857Y-64700000D01*
X127238095Y-64652381D01*
X127476191Y-64652381D01*
X127571429Y-64700000D01*
X127619048Y-64747619D01*
X127666667Y-64842857D01*
X127666667Y-64938095D01*
X127619048Y-65080952D01*
X127047619Y-65652381D01*
X127666667Y-65652381D01*
X134666667Y-64652381D02*
X134666667Y-65366667D01*
X134619047Y-65509524D01*
X134523809Y-65604762D01*
X134380952Y-65652381D01*
X134285714Y-65652381D01*
X135047619Y-64652381D02*
X135666667Y-64652381D01*
X135333333Y-65033333D01*
X135476191Y-65033333D01*
X135571429Y-65080952D01*
X135619048Y-65128571D01*
X135666667Y-65223810D01*
X135666667Y-65461905D01*
X135619048Y-65557143D01*
X135571429Y-65604762D01*
X135476191Y-65652381D01*
X135190476Y-65652381D01*
X135095238Y-65604762D01*
X135047619Y-65557143D01*
X130666667Y-64652381D02*
X130666667Y-65366667D01*
X130619047Y-65509524D01*
X130523809Y-65604762D01*
X130380952Y-65652381D01*
X130285714Y-65652381D01*
X131571429Y-64985714D02*
X131571429Y-65652381D01*
X131333333Y-64604762D02*
X131095238Y-65319048D01*
X131714286Y-65319048D01*
X146466667Y-81112381D02*
X146466667Y-81826667D01*
X146419047Y-81969524D01*
X146323809Y-82064762D01*
X146180952Y-82112381D01*
X146085714Y-82112381D01*
X146942857Y-82112381D02*
X146942857Y-81112381D01*
X147323810Y-81112381D01*
X147419048Y-81160000D01*
X147466667Y-81207619D01*
X147514286Y-81302857D01*
X147514286Y-81445714D01*
X147466667Y-81540952D01*
X147419048Y-81588571D01*
X147323810Y-81636190D01*
X146942857Y-81636190D01*
X148466667Y-82112381D02*
X147895238Y-82112381D01*
X148180952Y-82112381D02*
X148180952Y-81112381D01*
X148085714Y-81255238D01*
X147990476Y-81350476D01*
X147895238Y-81398095D01*
X123157143Y-57452381D02*
X122823809Y-56976190D01*
X122585714Y-57452381D02*
X122585714Y-56452381D01*
X122966667Y-56452381D01*
X123061905Y-56500000D01*
X123109524Y-56547619D01*
X123157143Y-56642857D01*
X123157143Y-56785714D01*
X123109524Y-56880952D01*
X123061905Y-56928571D01*
X122966667Y-56976190D01*
X122585714Y-56976190D01*
X124109524Y-57452381D02*
X123538095Y-57452381D01*
X123823809Y-57452381D02*
X123823809Y-56452381D01*
X123728571Y-56595238D01*
X123633333Y-56690476D01*
X123538095Y-56738095D01*
X124490476Y-56547619D02*
X124538095Y-56500000D01*
X124633333Y-56452381D01*
X124871429Y-56452381D01*
X124966667Y-56500000D01*
X125014286Y-56547619D01*
X125061905Y-56642857D01*
X125061905Y-56738095D01*
X125014286Y-56880952D01*
X124442857Y-57452381D01*
X125061905Y-57452381D01*
X120157143Y-57452381D02*
X119823809Y-56976190D01*
X119585714Y-57452381D02*
X119585714Y-56452381D01*
X119966667Y-56452381D01*
X120061905Y-56500000D01*
X120109524Y-56547619D01*
X120157143Y-56642857D01*
X120157143Y-56785714D01*
X120109524Y-56880952D01*
X120061905Y-56928571D01*
X119966667Y-56976190D01*
X119585714Y-56976190D01*
X121109524Y-57452381D02*
X120538095Y-57452381D01*
X120823809Y-57452381D02*
X120823809Y-56452381D01*
X120728571Y-56595238D01*
X120633333Y-56690476D01*
X120538095Y-56738095D01*
X121442857Y-56452381D02*
X122061905Y-56452381D01*
X121728571Y-56833333D01*
X121871429Y-56833333D01*
X121966667Y-56880952D01*
X122014286Y-56928571D01*
X122061905Y-57023810D01*
X122061905Y-57261905D01*
X122014286Y-57357143D01*
X121966667Y-57404762D01*
X121871429Y-57452381D01*
X121585714Y-57452381D01*
X121490476Y-57404762D01*
X121442857Y-57357143D01*
D10*
X137042857Y-58800000D02*
X137071429Y-58714286D01*
X137071429Y-58571429D01*
X137042857Y-58514286D01*
X137014286Y-58485715D01*
X136957143Y-58457143D01*
X136900000Y-58457143D01*
X136842857Y-58485715D01*
X136814286Y-58514286D01*
X136785714Y-58571429D01*
X136757143Y-58685715D01*
X136728571Y-58742857D01*
X136700000Y-58771429D01*
X136642857Y-58800000D01*
X136585714Y-58800000D01*
X136528571Y-58771429D01*
X136500000Y-58742857D01*
X136471429Y-58685715D01*
X136471429Y-58542857D01*
X136500000Y-58457143D01*
X136471429Y-58257143D02*
X137071429Y-58114286D01*
X136642857Y-58000000D01*
X137071429Y-57885714D01*
X136471429Y-57742857D01*
X137071429Y-57200000D02*
X137071429Y-57542857D01*
X137071429Y-57371429D02*
X136471429Y-57371429D01*
X136557143Y-57428572D01*
X136614286Y-57485714D01*
X136642857Y-57542857D01*
D12*
X137680953Y-61128571D02*
X137823810Y-61176190D01*
X137871429Y-61223810D01*
X137919048Y-61319048D01*
X137919048Y-61461905D01*
X137871429Y-61557143D01*
X137823810Y-61604762D01*
X137728572Y-61652381D01*
X137347619Y-61652381D01*
X137347619Y-60652381D01*
X137680953Y-60652381D01*
X137776191Y-60700000D01*
X137823810Y-60747619D01*
X137871429Y-60842857D01*
X137871429Y-60938095D01*
X137823810Y-61033333D01*
X137776191Y-61080952D01*
X137680953Y-61128571D01*
X137347619Y-61128571D01*
X138490476Y-61652381D02*
X138395238Y-61604762D01*
X138347619Y-61557143D01*
X138300000Y-61461905D01*
X138300000Y-61176190D01*
X138347619Y-61080952D01*
X138395238Y-61033333D01*
X138490476Y-60985714D01*
X138633334Y-60985714D01*
X138728572Y-61033333D01*
X138776191Y-61080952D01*
X138823810Y-61176190D01*
X138823810Y-61461905D01*
X138776191Y-61557143D01*
X138728572Y-61604762D01*
X138633334Y-61652381D01*
X138490476Y-61652381D01*
X139395238Y-61652381D02*
X139300000Y-61604762D01*
X139252381Y-61557143D01*
X139204762Y-61461905D01*
X139204762Y-61176190D01*
X139252381Y-61080952D01*
X139300000Y-61033333D01*
X139395238Y-60985714D01*
X139538096Y-60985714D01*
X139633334Y-61033333D01*
X139680953Y-61080952D01*
X139728572Y-61176190D01*
X139728572Y-61461905D01*
X139680953Y-61557143D01*
X139633334Y-61604762D01*
X139538096Y-61652381D01*
X139395238Y-61652381D01*
X140014286Y-60985714D02*
X140395238Y-60985714D01*
X140157143Y-60652381D02*
X140157143Y-61509524D01*
X140204762Y-61604762D01*
X140300000Y-61652381D01*
X140395238Y-61652381D01*
D10*
X145442857Y-58800000D02*
X145471429Y-58714286D01*
X145471429Y-58571429D01*
X145442857Y-58514286D01*
X145414286Y-58485715D01*
X145357143Y-58457143D01*
X145300000Y-58457143D01*
X145242857Y-58485715D01*
X145214286Y-58514286D01*
X145185714Y-58571429D01*
X145157143Y-58685715D01*
X145128571Y-58742857D01*
X145100000Y-58771429D01*
X145042857Y-58800000D01*
X144985714Y-58800000D01*
X144928571Y-58771429D01*
X144900000Y-58742857D01*
X144871429Y-58685715D01*
X144871429Y-58542857D01*
X144900000Y-58457143D01*
X144871429Y-58257143D02*
X145471429Y-58114286D01*
X145042857Y-58000000D01*
X145471429Y-57885714D01*
X144871429Y-57742857D01*
X144928571Y-57542857D02*
X144900000Y-57514286D01*
X144871429Y-57457143D01*
X144871429Y-57314286D01*
X144900000Y-57257143D01*
X144928571Y-57228572D01*
X144985714Y-57200000D01*
X145042857Y-57200000D01*
X145128571Y-57228572D01*
X145471429Y-57571429D01*
X145471429Y-57200000D01*
D12*
X141961905Y-61652381D02*
X141628571Y-61176190D01*
X141390476Y-61652381D02*
X141390476Y-60652381D01*
X141771429Y-60652381D01*
X141866667Y-60700000D01*
X141914286Y-60747619D01*
X141961905Y-60842857D01*
X141961905Y-60985714D01*
X141914286Y-61080952D01*
X141866667Y-61128571D01*
X141771429Y-61176190D01*
X141390476Y-61176190D01*
X142771429Y-61604762D02*
X142676191Y-61652381D01*
X142485714Y-61652381D01*
X142390476Y-61604762D01*
X142342857Y-61509524D01*
X142342857Y-61128571D01*
X142390476Y-61033333D01*
X142485714Y-60985714D01*
X142676191Y-60985714D01*
X142771429Y-61033333D01*
X142819048Y-61128571D01*
X142819048Y-61223810D01*
X142342857Y-61319048D01*
X143200000Y-61604762D02*
X143295238Y-61652381D01*
X143485714Y-61652381D01*
X143580953Y-61604762D01*
X143628572Y-61509524D01*
X143628572Y-61461905D01*
X143580953Y-61366667D01*
X143485714Y-61319048D01*
X143342857Y-61319048D01*
X143247619Y-61271429D01*
X143200000Y-61176190D01*
X143200000Y-61128571D01*
X143247619Y-61033333D01*
X143342857Y-60985714D01*
X143485714Y-60985714D01*
X143580953Y-61033333D01*
X144438096Y-61604762D02*
X144342858Y-61652381D01*
X144152381Y-61652381D01*
X144057143Y-61604762D01*
X144009524Y-61509524D01*
X144009524Y-61128571D01*
X144057143Y-61033333D01*
X144152381Y-60985714D01*
X144342858Y-60985714D01*
X144438096Y-61033333D01*
X144485715Y-61128571D01*
X144485715Y-61223810D01*
X144009524Y-61319048D01*
X144771429Y-60985714D02*
X145152381Y-60985714D01*
X144914286Y-60652381D02*
X144914286Y-61509524D01*
X144961905Y-61604762D01*
X145057143Y-61652381D01*
X145152381Y-61652381D01*
X146261905Y-69252381D02*
X146261905Y-68252381D01*
X146642858Y-68252381D01*
X146738096Y-68300000D01*
X146785715Y-68347619D01*
X146833334Y-68442857D01*
X146833334Y-68585714D01*
X146785715Y-68680952D01*
X146738096Y-68728571D01*
X146642858Y-68776190D01*
X146261905Y-68776190D01*
X147690477Y-68252381D02*
X147500000Y-68252381D01*
X147404762Y-68300000D01*
X147357143Y-68347619D01*
X147261905Y-68490476D01*
X147214286Y-68680952D01*
X147214286Y-69061905D01*
X147261905Y-69157143D01*
X147309524Y-69204762D01*
X147404762Y-69252381D01*
X147595239Y-69252381D01*
X147690477Y-69204762D01*
X147738096Y-69157143D01*
X147785715Y-69061905D01*
X147785715Y-68823810D01*
X147738096Y-68728571D01*
X147690477Y-68680952D01*
X147595239Y-68633333D01*
X147404762Y-68633333D01*
X147309524Y-68680952D01*
X147261905Y-68728571D01*
X147214286Y-68823810D01*
X137652381Y-89333333D02*
X138366667Y-89333333D01*
X138509524Y-89380953D01*
X138604762Y-89476191D01*
X138652381Y-89619048D01*
X138652381Y-89714286D01*
X138652381Y-88333333D02*
X138652381Y-88904762D01*
X138652381Y-88619048D02*
X137652381Y-88619048D01*
X137795238Y-88714286D01*
X137890476Y-88809524D01*
X137938095Y-88904762D01*
X132561905Y-89652381D02*
X132561905Y-88652381D01*
X132942858Y-88652381D01*
X133038096Y-88700000D01*
X133085715Y-88747619D01*
X133133334Y-88842857D01*
X133133334Y-88985714D01*
X133085715Y-89080952D01*
X133038096Y-89128571D01*
X132942858Y-89176190D01*
X132561905Y-89176190D01*
X133514286Y-88747619D02*
X133561905Y-88700000D01*
X133657143Y-88652381D01*
X133895239Y-88652381D01*
X133990477Y-88700000D01*
X134038096Y-88747619D01*
X134085715Y-88842857D01*
X134085715Y-88938095D01*
X134038096Y-89080952D01*
X133466667Y-89652381D01*
X134085715Y-89652381D01*
X116261905Y-66702381D02*
X116261905Y-65702381D01*
X116642858Y-65702381D01*
X116738096Y-65750000D01*
X116785715Y-65797619D01*
X116833334Y-65892857D01*
X116833334Y-66035714D01*
X116785715Y-66130952D01*
X116738096Y-66178571D01*
X116642858Y-66226190D01*
X116261905Y-66226190D01*
X117738096Y-65702381D02*
X117261905Y-65702381D01*
X117214286Y-66178571D01*
X117261905Y-66130952D01*
X117357143Y-66083333D01*
X117595239Y-66083333D01*
X117690477Y-66130952D01*
X117738096Y-66178571D01*
X117785715Y-66273810D01*
X117785715Y-66511905D01*
X117738096Y-66607143D01*
X117690477Y-66654762D01*
X117595239Y-66702381D01*
X117357143Y-66702381D01*
X117261905Y-66654762D01*
X117214286Y-66607143D01*
M02*
