G04 #@! TF.FileFunction,Soldermask,Top*
%FSLAX46Y46*%
G04 Gerber Fmt 4.6, Leading zero omitted, Abs format (unit mm)*
G04 Created by KiCad (PCBNEW 4.0.7) date Tuesday, 24 April 2018 'PMt' 13:45:20*
%MOMM*%
%LPD*%
G01*
G04 APERTURE LIST*
%ADD10C,0.100000*%
%ADD11R,1.100000X2.500000*%
%ADD12R,1.198880X1.198880*%
%ADD13R,1.700000X1.700000*%
%ADD14O,1.700000X1.700000*%
%ADD15R,1.300000X1.500000*%
%ADD16R,1.700000X0.900000*%
G04 APERTURE END LIST*
D10*
D11*
X128250000Y-82700000D03*
X130250000Y-82700000D03*
X132250000Y-82700000D03*
X134250000Y-82700000D03*
X136250000Y-82700000D03*
X138250000Y-82700000D03*
X140250000Y-82700000D03*
X142250000Y-82700000D03*
X142250000Y-67300000D03*
X140250000Y-67300000D03*
X138250000Y-67300000D03*
X136250000Y-67300000D03*
X134250000Y-67300000D03*
X132250000Y-67300000D03*
X130250000Y-67300000D03*
X128250000Y-67300000D03*
D12*
X128225000Y-86726960D03*
X128225000Y-88825000D03*
X130975000Y-86726960D03*
X130975000Y-88825000D03*
D13*
X127000000Y-57920000D03*
D14*
X127000000Y-60460000D03*
X127000000Y-63000000D03*
D13*
X135000000Y-57920000D03*
D14*
X135000000Y-60460000D03*
X135000000Y-63000000D03*
D13*
X131000000Y-57920000D03*
D14*
X131000000Y-60460000D03*
X131000000Y-63000000D03*
D13*
X147900000Y-86600000D03*
D14*
X147900000Y-84060000D03*
D15*
X123650000Y-58850000D03*
X123650000Y-61550000D03*
X121100000Y-58850000D03*
X121100000Y-61550000D03*
D16*
X139000000Y-56300000D03*
X139000000Y-59700000D03*
X143000000Y-56300000D03*
X143000000Y-59700000D03*
D13*
X148100000Y-71300000D03*
D14*
X148100000Y-73840000D03*
X148100000Y-76380000D03*
X148100000Y-78920000D03*
D13*
X140660000Y-88000000D03*
D14*
X143200000Y-88000000D03*
D13*
X136800000Y-88000000D03*
D14*
X134260000Y-88000000D03*
D13*
X117000000Y-68580000D03*
D14*
X117000000Y-71120000D03*
X117000000Y-73660000D03*
X117000000Y-76200000D03*
X117000000Y-78740000D03*
X117000000Y-81280000D03*
M02*
