M48
;DRILL file {KiCad 4.0.7} date Tuesday, 24 April 2018 'PMt' 13:45:28
;FORMAT={-:-/ absolute / inch / decimal}
FMAT,2
INCH,TZ
T1C0.020
T2C0.024
T3C0.039
%
G90
G05
M72
T1
X5.001Y-3.498
X5.0512Y-3.187
X5.1693Y-2.748
X5.2067Y-3.1693
X5.2165Y-3.4429
X5.3839Y-2.435
X5.4429Y-2.7953
X5.5197Y-2.439
X5.7028Y-2.8248
T2
X4.6063Y-2.4567
X4.6063Y-2.5748
X4.622Y-2.2756
X4.6535Y-3.3465
X4.8819Y-2.2461
X4.9862Y-2.7402
X5.25Y-3.0236
X5.25Y-3.0709
X5.25Y-3.1201
X5.374Y-2.8642
X5.378Y-3.1161
X5.378Y-3.1634
X5.4232Y-2.8642
X5.4724Y-2.8642
X5.5177Y-2.8642
X5.5197Y-2.7657
X5.5512Y-2.2126
X5.5807Y-2.7657
X5.5906Y-2.8622
X5.5906Y-2.9803
X5.6673Y-3.126
X5.8091Y-2.4173
X5.8484Y-2.6752
X5.8681Y-2.498
T3
X4.6063Y-2.7
X4.6063Y-2.8
X4.6063Y-2.9
X4.6063Y-3.
X4.6063Y-3.1
X4.6063Y-3.2
X5.Y-2.2803
X5.Y-2.3803
X5.Y-2.4803
X5.1575Y-2.2803
X5.1575Y-2.3803
X5.1575Y-2.4803
X5.2858Y-3.4646
X5.315Y-2.2803
X5.315Y-2.3803
X5.315Y-2.4803
X5.3858Y-3.4646
X5.5378Y-3.4646
X5.6378Y-3.4646
X5.8228Y-3.3094
X5.8228Y-3.4094
X5.8307Y-2.8071
X5.8307Y-2.9071
X5.8307Y-3.0071
X5.8307Y-3.1071
T0
M30
